<svg version="1.1" xmlns="http://www.w3.org/2000/svg" style="display: block;" viewBox="0 0 2048 2048" width="1024" height="1024">
<path transform="translate(0,0)" fill="rgb(254,254,254)" d="M 0 0 L 2048 0 L 2048 2048 L 0 2048 L 0 0 z"/>
<path transform="translate(0,0)" fill="rgb(251,206,77)" d="M 110.842 739.289 C 113.371 735.631 117.98 734.638 122.159 733.77 C 135.781 730.943 180.023 735.476 191.277 743.493 C 191.818 743.878 192.325 744.309 192.855 744.71 C 192.982 744.806 193.117 744.892 193.247 744.983 A 2396.67 2396.67 0 0 0 110.842 739.289 z"/>
<path transform="translate(0,0)" fill="rgb(0,0,0)" d="M 618.023 104.804 C 620.252 102.439 620.306 102.049 623.464 101.548 C 631.617 104.917 644.245 136.555 648.268 146.033 C 649.574 149.109 651.142 152.484 651.107 155.862 C 649.776 157.85 648.982 159.039 646.418 159.606 C 645.485 159.812 643.924 159.662 642.946 159.603 C 637.495 141.152 626.109 122.387 618.023 104.804 z"/>
<path transform="translate(0,0)" fill="rgb(0,0,0)" d="M 216.144 381.203 C 216.856 378.248 216.561 377.35 219.143 375.588 C 226.595 376.322 232.992 381.012 240.053 383.34 C 249.619 387.212 277.79 401.931 284.72 402.473 C 286.423 404.297 287.033 406.254 287.86 408.548 C 287.228 410.092 287.634 410.227 286.336 410.625 C 279.073 412.848 262.179 402.91 255.252 399.614 C 243.783 392.172 228.625 386.925 216.144 381.203 z"/>
<path transform="translate(0,0)" fill="rgb(0,0,0)" d="M 486.578 139.925 C 488.144 137.399 488.718 136.288 491.601 135.134 C 497.446 136.583 523.718 179.231 528.337 186.981 C 529.642 189.171 531.201 191.384 531.504 193.957 C 530.434 196.305 529.982 197.434 527.357 198.443 C 526.487 198.778 525.032 198.902 524.082 199.015 C 510.875 180.096 497.581 160.192 486.578 139.925 z"/>
<path transform="translate(0,0)" fill="rgb(0,0,0)" d="M 155.492 488.554 C 173.339 495.48 225.262 503.467 236.309 515.843 C 234.39 517.874 233.628 519.677 230.588 519.524 C 220.187 518.999 159.881 500.623 154.501 493.741 C 154.092 491.011 154.137 490.968 155.492 488.554 z"/>
<path transform="translate(0,0)" fill="rgb(0,0,0)" d="M 110.842 739.289 A 2396.67 2396.67 0 0 1 193.247 744.983 C 194.942 747.321 195.096 747.401 195.046 750.263 C 192.741 752.614 190.708 752.901 187.452 753.104 C 179.87 753.577 114.426 749.61 110.909 746.533 C 109.833 743.53 110.294 742.375 110.842 739.289 z"/>
<path transform="translate(0,0)" fill="rgb(0,0,0)" d="M 289.001 273.418 C 288.518 270.29 288.566 269.771 289.725 266.829 C 291.863 265.863 292.441 265.372 294.753 266.521 C 302.353 270.3 349.727 316.803 351.217 324.164 C 351.549 325.802 350.845 326.535 350.181 327.97 C 348.406 328.832 347.369 329.213 345.387 329.187 C 336.526 318.594 298.748 279.883 289.001 273.418 z"/>
<path transform="translate(0,0)" fill="rgb(0,0,0)" d="M 244.082 962.831 C 246.483 964.579 247.416 964.716 248.165 967.669 C 246.984 970.413 246.018 970.757 243.445 972.362 C 231.595 979.756 217.538 984.944 204.958 991.063 C 194.224 996.284 183.475 1003.03 172.413 1007.39 C 170.404 1008.18 169.082 1008.23 167.023 1007.67 L 165.553 1005.87 C 165.917 1002.36 166.209 1002.17 168.546 999.487 C 176.973 997.584 187.366 990.178 195.083 986.086 C 210.985 977.653 227.099 968.892 244.082 962.831 z"/>
<path transform="translate(0,0)" fill="rgb(251,206,77)" d="M 609.205 113.201 C 611.827 111.935 615.704 110.533 617.603 108.368 C 618.581 107.252 618.107 106.178 618.023 104.804 C 626.109 122.387 637.495 141.152 642.946 159.603 C 641.154 160.259 641.928 159.873 640.216 160.949 C 638.614 161.954 637.01 163.094 635.312 163.932 C 632.811 165.165 631.69 164.974 629.207 163.97 C 620.377 153.584 613.81 126.905 609.205 113.201 z"/>
<path transform="translate(0,0)" fill="rgb(0,0,0)" d="M 378.12 197.394 C 378.679 194.725 378.961 192.934 380.945 190.894 L 383.632 190.188 C 391.374 196.662 434.581 247.723 434.846 255.254 C 434.893 256.611 434.655 256.876 434.201 258.199 C 431.338 259.097 428.964 258.704 426.254 257.247 C 425.968 257.093 425.706 256.899 425.432 256.726 C 424.048 251.251 384.756 205.543 378.12 197.394 z"/>
<path transform="translate(0,0)" fill="rgb(0,0,0)" d="M 207.997 858.473 C 209.743 860.67 210.461 861.281 210.878 864.01 C 210.396 864.957 210.172 866.088 209.431 866.85 C 208.755 867.546 137.83 892.846 130.093 895.42 A 57.1562 57.1562 0 0 1 124.753 896.901 C 123.658 896.163 122.624 895.887 122.268 894.518 C 121.73 892.446 122.424 890.473 122.925 888.458 C 135.69 886.322 149.477 878.586 161.682 873.975 C 176.906 868.223 192.474 863.349 207.997 858.473 z"/>
<path transform="translate(0,0)" fill="rgb(0,0,0)" d="M 114.601 623.73 C 128.423 623.818 193.632 632.42 202.785 637.188 C 204.764 640.124 204.479 641.282 204.58 644.748 C 192.339 645.734 128.401 635.332 116.77 630.66 C 114.548 628.012 114.849 627.091 114.601 623.73 z"/>
<path transform="translate(0,0)" fill="rgb(0,0,0)" d="M 295.003 1066.04 C 297.862 1067.35 299.094 1067.46 300.685 1070.24 C 299.34 1073.75 296.642 1076.17 293.93 1078.64 C 281.23 1090.23 266.766 1100.14 253.425 1111 C 244.495 1118.27 235.035 1129.79 224.918 1134.9 C 223.855 1135.44 223.678 1135.44 222.677 1135.69 C 220.067 1134.26 219.38 1132.27 218.178 1129.71 C 228.439 1124.31 239.727 1111.58 248.941 1103.95 C 263.866 1091.59 281.582 1079.93 295.003 1066.04 z"/>
<path transform="translate(0,0)" fill="rgb(0,0,0)" d="M 851.714 1321.64 C 857.222 1327.07 856.626 1334.09 856.65 1341.39 C 856.715 1361.44 856.409 1428.51 849.604 1443.41 C 848.447 1444.36 847.304 1445.33 846.114 1446.24 C 843.974 1429.24 847.337 1403.47 847.929 1385.57 C 848.554 1366.64 847.616 1347.21 848.894 1328.38 C 849.09 1325.49 850.029 1323.96 851.714 1321.64 z"/>
<path transform="translate(0,0)" fill="rgb(251,206,77)" d="M 216.144 381.203 C 228.625 386.925 243.783 392.172 255.252 399.614 C 256.433 405.81 273.492 409.325 278.379 413.617 C 279.253 416.047 279.12 416.296 278.454 418.82 C 277.376 419.765 276.41 420.558 274.983 420.922 C 264.022 423.715 247.559 415.303 238.351 409.676 C 226.602 402.497 219.499 394.844 216.144 381.203 z"/>
<path transform="translate(0,0)" fill="rgb(0,0,0)" d="M 735.147 1287.27 C 737.914 1288.05 738.905 1288.09 740.55 1290.65 C 748.644 1303.24 734.26 1391.63 728.138 1407.84 C 726.523 1412.12 725.072 1414.38 720.779 1416.34 C 728.419 1371.01 733.934 1333.3 735.147 1287.27 z"/>
<path transform="translate(0,0)" fill="rgb(0,0,0)" d="M 610.787 1256.23 C 613.255 1257.34 615.887 1257.79 616.999 1260.47 C 619.316 1266.07 617.908 1276.09 617.48 1282.17 C 615.3 1313.11 610.12 1356.84 594.289 1383.42 C 591.912 1387.41 588.692 1392.47 584.159 1394.16 C 586.843 1382.85 593.354 1372.07 596.581 1360.72 C 606.326 1326.43 609.55 1291.67 610.787 1256.23 z"/>
<path transform="translate(0,0)" fill="rgb(0,0,0)" d="M 498.121 1206.13 C 500.944 1207.65 503.299 1208.29 504.432 1211.54 C 513.974 1238.92 489.76 1318.36 475.08 1344.48 C 472.018 1349.92 468.845 1354.59 463.282 1357.7 C 463.989 1350.94 475.334 1328.01 478.419 1319.41 C 487.228 1294.86 494.923 1270.19 497.089 1244.06 C 498.136 1231.43 497.698 1218.78 498.121 1206.13 z"/>
<path transform="translate(0,0)" fill="rgb(251,206,77)" d="M 378.12 197.394 C 384.756 205.543 424.048 251.251 425.432 256.726 C 424.498 258.257 423.474 260.311 422.223 261.577 C 420.136 263.691 418.85 263.628 416.075 263.942 C 406.18 259.562 372.142 217.269 369.793 207.842 C 368.46 202.49 375.541 201.482 377.759 198.123 C 377.909 197.896 378 197.637 378.12 197.394 z"/>
<path transform="translate(0,0)" fill="rgb(0,0,0)" d="M 391.212 1152.26 C 393.648 1153.37 395.095 1153.82 396.519 1156.21 C 396.064 1165.35 351.299 1217.6 342.765 1229.23 C 335.913 1238.57 330.225 1249.04 322.936 1257.97 C 322.517 1257.83 322.087 1257.72 321.677 1257.55 C 318.948 1256.43 318.631 1256.33 317.497 1253.74 C 319.761 1240.56 378.715 1165.46 391.212 1152.26 z"/>
<path transform="translate(0,0)" fill="rgb(251,206,77)" d="M 486.578 139.925 C 497.581 160.192 510.875 180.096 524.082 199.015 C 520.405 200.314 518.284 203.347 515.014 205.293 C 513.691 206.081 512.125 206.715 510.619 206.152 C 497.888 201.397 476.755 158.547 471.72 145.478 C 476.771 143.93 482.259 143.087 486.578 139.925 z"/>
<path transform="translate(0,0)" fill="rgb(251,206,77)" d="M 240.053 383.34 C 239.798 382.915 239.56 382.48 239.287 382.066 C 235.155 375.796 224.663 375.649 222.684 367.389 C 223.123 364.451 223.912 363.59 225.832 361.482 C 238.554 358.011 275.311 376.364 286.535 382.765 C 290.106 384.802 293.502 386.762 294.682 390.833 C 292.676 396.424 286.027 396.204 284.72 402.473 C 277.79 401.931 249.619 387.212 240.053 383.34 z"/>
<path transform="translate(0,0)" fill="rgb(251,206,77)" d="M 134.901 604.247 C 153.436 602.968 184.956 609.264 200.957 618.702 C 204.277 620.66 205.563 622.276 206.417 626.022 C 205.152 629.21 203.928 629.821 201.288 631.917 C 190.547 632.16 139.167 624.761 131.654 618.643 C 130.194 617.454 128.519 615.464 128.656 613.423 C 128.894 609.858 132.14 606.271 134.901 604.247 z"/>
<path transform="translate(0,0)" fill="rgb(251,206,77)" d="M 289.001 273.418 C 298.748 279.883 336.526 318.594 345.387 329.187 C 341.159 331.592 337.349 335.539 333.529 338.614 C 313.051 325.466 289.087 302.396 279.507 279.652 C 282.774 277.69 286.023 275.809 289.001 273.418 z"/>
<path transform="translate(0,0)" fill="rgb(0,0,0)" d="M 1359.69 484.606 L 1358.16 479.945 C 1358.35 476.635 1361.89 473.668 1364.1 471.37 C 1388.04 446.47 1415.06 423.399 1440.48 399.966 C 1449.01 392.106 1457.65 384.332 1466.03 376.312 C 1470.23 372.287 1474.37 367.353 1478.91 363.755 C 1481.34 361.827 1483.44 362.359 1486.29 362.558 C 1485.45 365.958 1484.41 367.97 1482.14 370.643 C 1474.37 379.753 1464.59 388.036 1455.95 396.368 A 2474.35 2474.35 0 0 1 1397.23 451.656 C 1385.44 462.466 1373.29 476.382 1359.69 484.606 z"/>
<path transform="translate(0,0)" fill="rgb(0,0,0)" d="M 1532.02 929.559 C 1532.38 926.788 1532.94 925.277 1534.41 922.903 C 1540.51 918.651 1673.82 883.188 1688.67 880.328 C 1692.06 879.675 1693.6 879.511 1696.54 881.481 C 1696.48 882.152 1696.57 882.853 1696.36 883.493 C 1695.31 886.728 1692.62 887.281 1689.87 888.439 C 1673.45 891.83 1657.25 897.238 1641.15 901.945 A 3351.84 3351.84 0 0 1 1577.79 919.72 C 1563.28 923.678 1547.14 929.627 1532.02 929.559 z"/>
<path transform="translate(0,0)" fill="rgb(251,206,77)" d="M 155.492 488.554 C 155.469 488.225 155.473 487.892 155.424 487.565 C 155.193 486.032 154.721 485.122 154.088 483.75 C 153.184 481.791 152.903 480.866 153.37 478.673 C 156.553 475.112 159.871 474.214 164.604 474.034 C 183.35 473.322 220.266 481.891 234.32 494.94 C 236.489 496.955 238.2 499.502 239.926 501.892 C 240.014 502.013 240.106 502.132 240.196 502.252 C 238.533 506.169 235.349 511.568 236.309 515.843 C 225.262 503.467 173.339 495.48 155.492 488.554 z"/>
<path transform="translate(0,0)" fill="rgb(0,0,0)" d="M 1391.78 578.624 C 1391.4 578.223 1390.99 577.851 1390.64 577.42 C 1388.89 575.237 1388.99 574.794 1389.3 572.163 C 1395.44 564.015 1424.53 545.289 1434.04 538.348 C 1465.14 515.664 1497.02 493.46 1525.94 467.979 C 1531.02 463.508 1540.79 450.759 1547.59 449.96 C 1549.1 449.783 1550.19 449.697 1551.36 450.647 L 1551.39 453.305 C 1543.64 466.991 1527.26 478.563 1515.33 488.702 L 1432.28 549.668 C 1418.96 559.384 1405.8 569.958 1391.78 578.624 z"/>
<path transform="translate(0,0)" fill="rgb(251,206,77)" d="M 161.232 988.884 C 173.174 970.896 199.988 956.533 219.545 948.709 C 224.545 946.709 231.81 943.729 236.997 946.393 C 241.067 948.484 242.878 958.643 244.082 962.831 C 227.099 968.892 210.985 977.653 195.083 986.086 C 187.366 990.178 176.973 997.584 168.546 999.487 C 166.204 995.881 163.727 992.385 161.232 988.884 z"/>
<path transform="translate(0,0)" fill="rgb(251,206,77)" d="M 122.925 888.458 C 122.123 883.733 118.82 879.313 120.081 874.399 C 121.466 869.004 128.832 864.589 133.355 862.013 C 148.133 853.599 184.876 839.774 201.506 844.343 C 204.617 847.984 205.036 852.767 207.19 856.951 C 207.453 857.461 207.728 857.965 207.997 858.473 C 192.474 863.349 176.906 868.223 161.682 873.975 C 149.477 878.586 135.69 886.322 122.925 888.458 z"/>
<path transform="translate(0,0)" fill="rgb(0,0,0)" d="M 1425.51 695.48 C 1425.35 693.296 1424.67 689.444 1425.89 687.555 C 1432.74 676.919 1597.21 588.816 1608.73 588.358 C 1610.35 588.293 1611.28 589.515 1612.46 590.438 L 1612.32 592.593 C 1610.19 595.384 1607.66 596.616 1604.61 598.266 C 1556.73 622.943 1509.72 649.103 1462.18 674.398 C 1449.84 680.964 1438.06 689.509 1425.51 695.48 z"/>
<path transform="translate(0,0)" fill="rgb(251,206,77)" d="M 846.114 1446.24 C 844.758 1446.42 843.38 1446.65 842.004 1446.54 A 15.0031 15.0031 0 0 1 830.85 1440.19 C 829.004 1437.56 827.493 1433.7 827.19 1430.48 C 825.921 1416.99 829.472 1401.25 830.826 1387.69 C 832.721 1368.71 833.415 1348.65 836.976 1329.94 C 837.671 1326.29 838.799 1323.47 842.273 1321.6 C 845.729 1319.75 848.35 1320.28 851.714 1321.64 C 850.029 1323.96 849.09 1325.49 848.894 1328.38 C 847.616 1347.21 848.554 1366.64 847.929 1385.57 C 847.337 1403.47 843.974 1429.24 846.114 1446.24 z"/>
<path transform="translate(0,0)" fill="rgb(251,206,77)" d="M 720.779 1416.34 C 718.207 1417.09 714.594 1418.31 711.939 1417.52 C 709.276 1416.72 707.72 1415.35 706.372 1412.93 C 704.486 1409.55 705.714 1402.63 706.145 1398.78 C 708.74 1375.56 714.48 1352.41 718.702 1329.44 C 721.045 1316.68 721.66 1301.83 726.4 1289.81 C 728.74 1287.56 732.07 1287.66 735.147 1287.27 C 733.934 1333.3 728.419 1371.01 720.779 1416.34 z"/>
<path transform="translate(0,0)" fill="rgb(251,206,77)" d="M 584.159 1394.16 C 581.924 1393.54 579.492 1392.68 577.486 1391.51 C 575.177 1390.16 573.574 1388.15 573.217 1385.46 C 572.172 1377.6 595.219 1288.88 599.023 1276.32 C 600.672 1270.88 602.625 1262.78 606.288 1258.35 C 607.863 1256.45 608.47 1256.54 610.787 1256.23 C 609.55 1291.67 606.326 1326.43 596.581 1360.72 C 593.354 1372.07 586.843 1382.85 584.159 1394.16 z"/>
<path transform="translate(0,0)" fill="rgb(0,0,0)" d="M 1691.83 741.564 C 1698.9 739.697 1706.88 736.728 1714.2 737.211 L 1716.42 738.583 C 1716.73 740.96 1717.09 740.445 1715.56 742.631 C 1703.66 749.186 1681.88 753.768 1668.15 758.413 L 1568.11 791.548 C 1549.91 797.531 1531.76 804.049 1513.38 809.438 C 1507.79 811.077 1497.29 815.053 1491.56 813.856 C 1490.38 813.611 1488.95 812.678 1487.95 812.113 C 1489.5 809.485 1490.78 807.864 1493.62 806.582 C 1509.69 799.327 1530.49 794.147 1547.56 788.391 A 13716.3 13716.3 0 0 1 1691.83 741.564 z"/>
<path transform="translate(0,0)" fill="rgb(251,206,77)" d="M 1689.11 1110.22 C 1695.42 1109.85 1702.12 1109.64 1708.11 1111.94 C 1714.7 1114.48 1720.28 1119.28 1722.92 1125.94 A 26.1267 26.1267 0 0 1 1722.51 1145.95 C 1719.1 1153.75 1713.23 1158.34 1705.52 1161.39 C 1698.06 1162.36 1691.19 1162.52 1684.35 1158.94 A 26.0518 26.0518 0 0 1 1671.31 1143.2 C 1669.28 1136.4 1669.52 1128.67 1672.99 1122.37 C 1676.53 1115.94 1682.26 1112.34 1689.11 1110.22 z"/>
<path transform="translate(0,0)" fill="rgb(251,206,77)" d="M 218.178 1129.71 L 217.756 1128.74 L 216.31 1128.49 C 211.023 1132.19 206.693 1134.92 199.982 1134.79 C 197.605 1133.62 196.026 1132.85 195.011 1130.23 C 193.804 1127.11 194.39 1124.08 195.574 1121.08 C 203.38 1101.28 257.236 1064.21 277.123 1055.1 C 281.083 1053.29 285.864 1051.01 290.2 1052.63 C 293.516 1056.2 294.089 1061.4 295.003 1066.04 C 281.582 1079.93 263.866 1091.59 248.941 1103.95 C 239.727 1111.58 228.439 1124.31 218.178 1129.71 z"/>
<path transform="translate(0,0)" fill="rgb(251,206,77)" d="M 463.282 1357.7 C 463.123 1357.78 462.969 1357.87 462.804 1357.93 C 458.822 1359.49 455.328 1359.43 451.449 1357.5 C 448.526 1356.05 447.497 1354.14 446.593 1351.14 C 448.293 1337.37 454.245 1324.06 458.53 1310.95 C 463.116 1296.92 467.321 1282.72 471.64 1268.6 C 477.35 1249.94 481.062 1230.7 487.257 1212.19 C 488.358 1208.9 489.201 1206.09 491.827 1203.67 C 494.923 1203.4 495.597 1204.44 498.121 1206.13 C 497.698 1218.78 498.136 1231.43 497.089 1244.06 C 494.923 1270.19 487.228 1294.86 478.419 1319.41 C 475.334 1328.01 463.989 1350.94 463.282 1357.7 z"/>
<path transform="translate(0,0)" fill="rgb(251,206,77)" d="M 1532.02 929.559 C 1547.14 929.627 1563.28 923.678 1577.79 919.72 A 3351.84 3351.84 0 0 0 1641.15 901.945 C 1657.25 897.238 1673.45 891.83 1689.87 888.439 L 1694.55 900.913 C 1674.99 923.778 1589.22 949.109 1557.92 951.435 C 1551.53 951.91 1544.67 951.64 1539.45 947.428 C 1534.01 943.028 1533.89 935.768 1532.02 929.559 z"/>
<path transform="translate(0,0)" fill="rgb(251,206,77)" d="M 917.762 1388.09 C 925.582 1387.22 932.748 1387.51 940.082 1390.65 A 36.4107 36.4107 0 0 1 960.341 1412.34 C 963.783 1422.2 962.713 1433.42 957.796 1442.59 C 952.57 1452.35 944.169 1458.15 933.761 1461.26 C 925.52 1462.16 918.402 1462.23 910.562 1458.89 A 38.1299 38.1299 0 0 1 889.58 1436.61 C 886.206 1427.1 886.717 1415.88 891.467 1406.91 C 897.085 1396.31 906.714 1391.33 917.762 1388.09 z"/>
<path transform="translate(0,0)" fill="rgb(251,206,77)" d="M 1327.33 319.19 C 1336.05 318.559 1343.45 318.367 1351.7 322.028 A 39.2485 39.2485 0 0 1 1372.87 344.712 A 38.0549 38.0549 0 0 1 1370.8 374.716 C 1365.15 385.634 1355.46 391.368 1344.21 395.152 C 1337.2 396.889 1329.28 396.231 1322.54 393.708 C 1312.71 390.028 1304.81 381.594 1300.95 371.93 C 1297.05 362.158 1297.61 351.006 1301.81 341.421 C 1306.94 329.726 1315.84 323.621 1327.33 319.19 z"/>
<path transform="translate(0,0)" fill="rgb(251,206,77)" d="M 1604.61 598.266 C 1607.09 603.187 1609.06 607.371 1607.25 612.888 C 1599.14 637.561 1506.91 684.789 1480.88 697.052 C 1469.48 702.422 1450 711.526 1437.3 707.277 C 1433.06 705.857 1428.82 702.642 1426.8 698.574 C 1426.05 697.067 1426.03 696.91 1425.51 695.48 C 1438.06 689.509 1449.84 680.964 1462.18 674.398 C 1509.72 649.103 1556.73 622.943 1604.61 598.266 z"/>
<path transform="translate(0,0)" fill="rgb(251,206,77)" d="M 1276.97 223.17 C 1286.99 222.535 1295.87 223.004 1304.71 228.459 C 1314.82 234.705 1321.09 245.325 1323.36 256.835 C 1325.64 268.428 1323.93 281.207 1317.15 291.06 C 1309.63 301.98 1298.51 306.687 1285.87 308.735 C 1275.9 308.766 1266.12 307.367 1257.5 302.012 C 1248.37 296.343 1242.02 286.726 1239.78 276.273 C 1237.36 264.967 1239.93 253.216 1246.25 243.605 C 1253.75 232.226 1263.93 226.08 1276.97 223.17 z"/>
<path transform="translate(0,0)" fill="rgb(251,206,77)" d="M 1186.42 150.268 C 1197.81 149.745 1207.92 150.122 1217.8 156.693 C 1227.66 163.252 1233.93 173.967 1236.19 185.468 C 1238.59 197.657 1236.49 210.901 1229.2 221.108 C 1221.25 232.228 1210.31 236.655 1197.31 238.737 C 1186.83 239.504 1176.95 237.683 1167.99 231.933 A 45.9919 45.9919 0 0 1 1147.88 202.095 C 1145.72 190.577 1148 177.608 1154.79 167.955 C 1162.52 156.963 1173.66 152.509 1186.42 150.268 z"/>
<path transform="translate(0,0)" fill="rgb(251,206,77)" d="M 1013.06 1432.26 C 1024.88 1431.68 1035.7 1433.47 1045.96 1439.78 C 1057.25 1446.73 1064.13 1457.01 1066.98 1469.88 C 1069.87 1482.95 1068.31 1497.96 1060.67 1509.15 C 1052.23 1521.48 1039.32 1527.05 1025.22 1529.92 C 1012.68 1530.55 1002.26 1529.19 991.482 1522.02 C 980.729 1514.87 973.736 1504.28 971.248 1491.62 C 968.601 1478.15 970.553 1463.09 978.522 1451.7 C 986.904 1439.73 999.16 1434.54 1013.06 1432.26 z"/>
<path transform="translate(0,0)" fill="rgb(251,206,77)" d="M 1486.29 362.558 C 1486.63 362.613 1486.97 362.698 1487.32 362.722 C 1489.06 362.845 1490.2 362.487 1491.87 362.11 C 1496.98 360.957 1505.54 359.866 1510.01 362.98 C 1514.32 365.978 1517.3 374.696 1518.84 379.513 C 1516.98 386.358 1515.09 392.743 1511.09 398.724 C 1495.09 422.621 1416.97 488.69 1391.32 503.58 C 1384.61 507.481 1374.54 511.761 1366.65 509.994 C 1363.76 509.345 1361.79 507.539 1360.41 504.979 C 1357.44 499.498 1358.32 490.388 1359.69 484.606 C 1373.29 476.382 1385.44 462.466 1397.23 451.656 A 2474.35 2474.35 0 0 0 1455.95 396.368 C 1464.59 388.036 1474.37 379.753 1482.14 370.643 C 1484.41 367.97 1485.45 365.958 1486.29 362.558 z"/>
<path transform="translate(0,0)" fill="rgb(251,206,77)" d="M 1487.95 812.113 C 1484.13 809.058 1480.91 805.255 1479.17 800.649 C 1477.05 795.037 1477.13 788.901 1479.9 783.531 C 1487.63 768.549 1536.3 751.85 1553.44 746.14 A 2369.33 2369.33 0 0 1 1646.12 717.676 C 1660.09 713.696 1674.86 708.365 1689.29 706.476 C 1693.24 705.958 1697.86 705.607 1701.48 707.673 C 1704.12 709.181 1706.71 712.402 1707.16 715.472 C 1708.64 725.481 1697.35 734.292 1691.83 741.564 A 13716.3 13716.3 0 0 0 1547.56 788.391 C 1530.49 794.147 1509.69 799.327 1493.62 806.582 C 1490.78 807.864 1489.5 809.485 1487.95 812.113 z"/>
<path transform="translate(0,0)" fill="rgb(251,206,77)" d="M 1515.33 488.702 C 1518.94 489.55 1521.71 487.344 1524.8 485.478 C 1536.93 478.14 1561.46 451.304 1575.08 454.887 C 1580.94 456.428 1585.32 462.13 1587.92 467.29 C 1590.3 472 1590.13 477.041 1588.3 481.92 C 1577.23 511.496 1493.12 559.06 1463.76 575.827 C 1451.18 583.012 1438.85 590.932 1425.44 596.556 C 1417.9 599.719 1407.9 602.623 1400.01 599.06 C 1396.15 597.319 1393.8 594.001 1392.57 590.023 C 1391.55 586.699 1391.86 582.109 1391.78 578.624 C 1405.8 569.958 1418.96 559.384 1432.28 549.668 L 1515.33 488.702 z"/>
<path transform="translate(0,0)" fill="rgb(251,206,77)" d="M 1660.67 955.306 C 1673.67 954.308 1688.33 959.176 1699.42 965.728 A 68.446 68.446 0 0 1 1731.08 1007.99 A 64.8029 64.8029 0 0 1 1724.1 1057.43 C 1712.63 1076.64 1694.18 1086.22 1673.09 1091.46 C 1656.51 1093.34 1639.03 1087.31 1625.8 1077.47 C 1611.41 1066.76 1602.09 1051.47 1599.71 1033.65 C 1597.13 1014.35 1602 995.863 1613.97 980.463 C 1625.89 965.128 1641.73 957.802 1660.67 955.306 z"/>
<path transform="translate(0,0)" fill="rgb(251,206,77)" d="M 1157.96 1448.63 C 1147.58 1445.95 1125.01 1427.29 1115.17 1420.79 C 1106.54 1415.09 1097.43 1410.15 1088.69 1404.63 C 1079.47 1398.82 1070.62 1392.42 1061.37 1386.67 C 1012.31 1356.15 962.908 1325.7 909.236 1303.86 C 852.82 1280.91 803.856 1275.57 745.014 1265.1 C 637.852 1246.05 533.09 1210.57 445.185 1144.84 C 404.164 1114.16 365.379 1076.03 334.939 1034.73 C 285.688 967.922 248.774 880.338 237.082 798.084 C 217.655 661.412 250.128 512.525 333.851 401.405 A 611.453 611.453 0 0 1 741.264 160.779 C 837.104 147.417 945.298 160.733 1034.9 197.432 C 1074.96 213.838 1114.06 236.837 1148.58 262.943 C 1195.53 298.45 1228.72 338.512 1260.5 387.568 C 1269.22 401.031 1278.13 414.418 1285.53 428.672 C 1299.1 454.826 1312.99 484.302 1323.11 511.952 C 1338.13 553.033 1350.01 602.371 1360.83 644.911 C 1381.57 726.415 1401.86 806.777 1436.02 883.941 C 1465.72 951.039 1502.7 1014.07 1542.41 1075.66 C 1575.22 1126.54 1608.5 1176.33 1637.65 1229.49 C 1651.4 1254.57 1664.58 1279.69 1674.5 1306.59 C 1684.57 1333.9 1691.18 1361.34 1692.82 1390.49 C 1693.71 1406.36 1693.01 1422.7 1695.32 1438.42 L 1695.59 1440.14 C 1711.62 1459.23 1730.58 1476.86 1748.31 1494.43 C 1755.93 1501.99 1765.8 1509.37 1771.42 1518.55 C 1774.74 1523.98 1775.5 1531.31 1775.03 1537.54 C 1774.13 1549.53 1766.34 1556.49 1759.31 1565.3 C 1773.42 1573.95 1867.7 1660.48 1869.71 1668.84 C 1871.61 1676.74 1860.25 1692.77 1855.02 1698.57 A 186.467 186.467 0 0 1 1848.53 1705.3 C 1892.06 1741 1953.89 1788.55 1959.48 1848.94 C 1961.1 1866.51 1958.51 1883.86 1946.74 1897.74 C 1928.26 1919.53 1895.75 1927.32 1868.51 1929.06 C 1825.78 1931.79 1781.64 1926.4 1739.62 1919.03 C 1693.05 1910.88 1646.48 1900.34 1598.97 1900.72 A 260.26 260.26 0 0 0 1525.55 1912.29 C 1505.12 1918.59 1484.85 1926.45 1463.84 1930.63 C 1445.25 1934.33 1425.73 1934.94 1406.84 1933.73 C 1377.23 1931.83 1346.72 1923.28 1324.11 1903.31 C 1301.61 1883.44 1293.73 1857.17 1290.64 1828.25 C 1268.81 1832.17 1247.05 1839.08 1225.79 1845.39 C 1202.02 1852.45 1178.05 1859.43 1154.66 1867.64 C 1054.16 1902.91 947.072 1943.91 848.936 1876.1 C 795.75 1839.35 766.166 1777.15 755.167 1714.87 C 753.456 1705.18 747.816 1679.56 753.239 1671.56 C 755.353 1670.88 755.597 1670.92 757.754 1671.5 C 762.01 1678.17 765.974 1710.8 768.804 1721.04 C 791.62 1803.59 839.809 1870.84 927.931 1890.16 C 998.515 1905.64 1070.62 1874.9 1136.56 1853.06 C 1172.52 1841.14 1208.41 1829.96 1244.83 1819.53 C 1259.36 1815.37 1273.99 1810.46 1288.76 1807.3 C 1292.1 1773.29 1305.15 1737.87 1332.3 1715.77 C 1348.73 1702.39 1371.39 1692.91 1392.88 1695.21 C 1404.61 1696.47 1416.26 1701.27 1423.71 1710.71 C 1430.78 1719.68 1433.28 1732.33 1431.64 1743.51 C 1429.28 1759.56 1417.57 1773.34 1404.74 1782.53 C 1377.82 1801.83 1339.97 1813.28 1308.63 1823.94 C 1310.48 1848.6 1318.68 1873.19 1338.04 1889.63 C 1364.69 1912.26 1407.45 1916.44 1440.92 1913.46 C 1472.51 1910.65 1501 1898.98 1531.2 1890.67 A 252.678 252.678 0 0 1 1591.26 1881.28 C 1616.81 1880.17 1642.2 1882.69 1667.46 1886.4 C 1724.84 1894.85 1890.7 1935.2 1931.54 1885.28 C 1940.43 1874.41 1942.11 1859.42 1940.41 1845.87 C 1934.06 1795.27 1871.73 1750.85 1835.41 1719.65 C 1825.59 1725.52 1805.95 1738.2 1793.98 1735.47 C 1781.72 1732.67 1696.86 1666.46 1676.04 1654.28 C 1656.91 1660.56 1636.37 1660.98 1617.99 1651.6 C 1601.66 1643.26 1538.34 1589.69 1533.4 1574.8 C 1532.86 1573.15 1532.46 1571.46 1532.09 1569.76 C 1487.94 1592.26 1420.96 1581.8 1375.23 1566.89 C 1297.36 1541.5 1222.91 1498.13 1157.96 1448.63 z"/>
<path transform="translate(0,0)" fill="rgb(0,0,0)" d="M 1050.01 1305.86 C 1050.66 1306.11 1051.78 1306.53 1052.45 1306.87 C 1063.9 1312.48 1075.1 1321.51 1085.82 1328.53 C 1105.94 1341.7 1126.39 1354.32 1146.47 1367.57 C 1192.71 1398.06 1239.87 1427.18 1286.18 1457.59 C 1308.19 1472.05 1330.25 1486.9 1353.01 1500.14 C 1358.38 1503.26 1379.67 1513.07 1381.16 1517.3 C 1380.57 1517.21 1379.97 1517.13 1379.38 1517.03 C 1353.87 1512.63 1327.13 1497.36 1304.63 1484.77 C 1274.22 1467.76 1057.94 1327.96 1049.71 1312.94 C 1048.08 1309.96 1049.05 1308.8 1050.01 1305.86 z"/>
<path transform="translate(0,0)" fill="rgb(0,0,0)" d="M 333.513 632.576 C 334.093 632.961 335.215 633.991 335.483 634.613 C 336.783 637.628 336.354 682.714 336.866 691.237 C 340.48 751.485 353.098 810.079 377.182 865.439 A 448.358 448.358 0 0 0 507.095 1037.05 C 523.351 1049.95 540.765 1061.48 558.189 1072.72 C 564.311 1076.67 583.686 1085.28 586.611 1090.51 L 584.86 1091.88 A 50.583 50.583 0 0 1 582.431 1091.27 C 569.151 1087.57 556.219 1080.28 544.167 1073.63 C 477.048 1036.6 422.755 976.776 385.069 910.625 C 346.277 842.532 328.43 764.207 328.825 686.139 C 328.911 669.068 328.978 649.058 333.513 632.576 z"/>
<path transform="translate(0,0)" fill="rgb(0,0,0)" d="M 781.444 210.435 C 819.159 208.131 859.865 210.859 897.096 217.36 C 1015.46 238.029 1117.82 297.109 1187.24 396.292 C 1249.58 485.345 1277.51 600.136 1299.41 704.958 C 1309.42 752.85 1318.11 801.568 1332.88 848.285 C 1342.31 878.121 1354.45 908.68 1370.3 935.72 C 1376.92 947.021 1393.97 970.141 1397.87 980.468 C 1398.8 982.926 1398.98 983.768 1398.52 986.321 L 1396.36 986.913 C 1386.13 983.719 1375.84 964.938 1370.1 955.961 A 465.299 465.299 0 0 1 1332.48 885.973 C 1311.2 835.817 1299.7 782.18 1288.23 729.171 C 1278.11 682.426 1268.01 635.338 1254.61 589.405 C 1239.99 539.318 1220.66 488.412 1194.58 443.096 C 1137.19 343.375 1049.42 276.475 938.46 246.718 A 536.811 536.811 0 0 0 531.869 301.618 C 424.861 363.525 346.355 471.388 314.738 590.258 A 490.683 490.683 0 0 0 331.942 888.251 C 355.131 947.533 395.576 1003.43 442.548 1046.17 C 549.691 1143.64 655.351 1162.83 792.77 1188.97 C 849.463 1199.76 907.772 1212.47 960.744 1236.06 C 966.733 1238.73 980.723 1244.16 982.955 1250.06 C 981.631 1252.4 981.896 1251.85 979.565 1252.58 C 966.474 1250.17 953.349 1244.37 940.464 1240.7 A 1170.87 1170.87 0 0 0 857.254 1220.33 C 819.76 1212.66 781.755 1207.06 744.142 1199.9 C 626.003 1177.39 521.77 1144.15 431.323 1061.56 A 461.306 461.306 0 0 1 280.953 743.779 C 274.841 608.949 318.575 476.232 410.242 376.069 C 478.812 301.144 574.223 246.757 673.097 224.047 C 708.751 215.857 744.943 212.013 781.444 210.435 z"/>
<path transform="translate(0,0)" fill="rgb(0,0,0)" d="M 771.029 522.156 C 773.358 503.838 776.519 433.154 785.18 422.021 C 786.373 420.487 786.955 420.895 788.768 420.696 C 793.197 422.625 795.535 426.449 797.757 430.572 C 811.749 456.545 822.236 485.731 833.758 512.908 C 860.482 575.944 885.806 639.616 914.465 701.806 C 919.49 700.419 924.53 699.001 929.62 697.876 C 942.482 695.033 955.407 694.579 968.54 694.71 C 1006.59 695.088 1035.67 704.777 1067.76 724.951 C 1077.46 721.772 1087.54 719.819 1097.73 721.73 C 1105.39 723.167 1112.34 726.883 1116.75 733.454 C 1122.41 741.892 1121.94 750.494 1120.23 759.953 C 1126.62 769.559 1133.79 778.799 1140.59 788.12 C 1144.88 786.623 1149.56 785.041 1154.08 784.546 C 1161.05 783.785 1168.32 786.342 1173.61 790.824 C 1180.43 796.6 1183.67 805.029 1184.1 813.806 C 1184.48 821.677 1182.81 825.658 1177.54 831.407 C 1189.94 858.835 1190.79 891.18 1192.09 920.788 C 1200 934.189 1214.19 944.91 1224.81 956.225 C 1245.98 978.775 1266.87 1001.74 1287.65 1024.64 L 1509.19 1266.33 C 1560.49 1321.4 1612.97 1375.53 1663.24 1431.52 C 1667.59 1430.53 1672 1429.99 1676.42 1429.39 C 1652.64 1326.36 1580.09 1237.83 1516.65 1156 C 1490.73 1122.58 1461.99 1087.75 1444.79 1048.88 C 1452.45 1056.66 1458.77 1066 1465.38 1074.69 C 1475.31 1087.77 1485.3 1100.73 1495.79 1113.37 C 1563.33 1194.76 1679.65 1325.62 1688 1433.4 L 1695.59 1440.14 C 1711.62 1459.23 1730.58 1476.86 1748.31 1494.43 C 1755.93 1501.99 1765.8 1509.37 1771.42 1518.55 C 1774.74 1523.98 1775.5 1531.31 1775.03 1537.54 C 1774.13 1549.53 1766.34 1556.49 1759.31 1565.3 C 1773.42 1573.95 1867.7 1660.48 1869.71 1668.84 C 1871.61 1676.74 1860.25 1692.77 1855.02 1698.57 A 186.467 186.467 0 0 1 1848.53 1705.3 C 1892.06 1741 1953.89 1788.55 1959.48 1848.94 C 1961.1 1866.51 1958.51 1883.86 1946.74 1897.74 C 1928.26 1919.53 1895.75 1927.32 1868.51 1929.06 C 1825.78 1931.79 1781.64 1926.4 1739.62 1919.03 C 1693.05 1910.88 1646.48 1900.34 1598.97 1900.72 A 260.26 260.26 0 0 0 1525.55 1912.29 C 1505.12 1918.59 1484.85 1926.45 1463.84 1930.63 C 1445.25 1934.33 1425.73 1934.94 1406.84 1933.73 C 1377.23 1931.83 1346.72 1923.28 1324.11 1903.31 C 1301.61 1883.44 1293.73 1857.17 1290.64 1828.25 C 1268.81 1832.17 1247.05 1839.08 1225.79 1845.39 C 1202.02 1852.45 1178.05 1859.43 1154.66 1867.64 C 1054.16 1902.91 947.072 1943.91 848.936 1876.1 C 795.75 1839.35 766.166 1777.15 755.167 1714.87 C 753.456 1705.18 747.816 1679.56 753.239 1671.56 C 755.353 1670.88 755.597 1670.92 757.754 1671.5 C 762.01 1678.17 765.974 1710.8 768.804 1721.04 C 791.62 1803.59 839.809 1870.84 927.931 1890.16 C 998.515 1905.64 1070.62 1874.9 1136.56 1853.06 C 1172.52 1841.14 1208.41 1829.96 1244.83 1819.53 C 1259.36 1815.37 1273.99 1810.46 1288.76 1807.3 C 1292.1 1773.29 1305.15 1737.87 1332.3 1715.77 C 1348.73 1702.39 1371.39 1692.91 1392.88 1695.21 C 1404.61 1696.47 1416.26 1701.27 1423.71 1710.71 C 1430.78 1719.68 1433.28 1732.33 1431.64 1743.51 C 1429.28 1759.56 1417.57 1773.34 1404.74 1782.53 C 1377.82 1801.83 1339.97 1813.28 1308.63 1823.94 C 1310.48 1848.6 1318.68 1873.19 1338.04 1889.63 C 1364.69 1912.26 1407.45 1916.44 1440.92 1913.46 C 1472.51 1910.65 1501 1898.98 1531.2 1890.67 A 252.678 252.678 0 0 1 1591.26 1881.28 C 1616.81 1880.17 1642.2 1882.69 1667.46 1886.4 C 1724.84 1894.85 1890.7 1935.2 1931.54 1885.28 C 1940.43 1874.41 1942.11 1859.42 1940.41 1845.87 C 1934.06 1795.27 1871.73 1750.85 1835.41 1719.65 C 1825.59 1725.52 1805.95 1738.2 1793.98 1735.47 C 1781.72 1732.67 1696.86 1666.46 1676.04 1654.28 C 1656.91 1660.56 1636.37 1660.98 1617.99 1651.6 C 1601.66 1643.26 1538.34 1589.69 1533.4 1574.8 C 1532.86 1573.15 1532.46 1571.46 1532.09 1569.76 C 1487.94 1592.26 1420.96 1581.8 1375.23 1566.89 C 1297.36 1541.5 1222.91 1498.13 1157.96 1448.63 C 1139.48 1430.9 1107.99 1413.15 1090.89 1394.15 C 1088.84 1391.88 1087.64 1390.07 1087.74 1386.99 C 1089.55 1385.82 1089.82 1385.5 1092.04 1386.35 C 1100.86 1389.72 1122.1 1405.7 1131.38 1411.85 A 3084.52 3084.52 0 0 0 1219.49 1468.82 C 1295.63 1515.88 1374.32 1560.41 1466.11 1563.1 C 1477.12 1563.42 1488.71 1562.5 1499.52 1560.41 C 1507.43 1558.87 1517.49 1554.72 1525.38 1555.18 C 1527.3 1556.18 1528.41 1557.01 1529.68 1558.74 C 1530.07 1559.28 1530.46 1559.84 1530.85 1560.38 L 1530.97 1558.26 L 1531.78 1557.42 C 1512.53 1541.85 1494.48 1524.32 1476.15 1507.65 L 1397.69 1437 L 1142.6 1208.89 C 1102.91 1173.86 1063.95 1137.02 1021.78 1105.04 C 1021.6 1104.51 1020.83 1102.05 1020.55 1101.63 C 1018.94 1099.24 999.098 1095.41 995.356 1094.32 C 976.174 1088.76 956.441 1082.22 937.944 1074.7 C 933.911 1078.91 930.323 1081.87 924.207 1081.97 C 916.044 1082.11 908.841 1077.11 903.241 1071.63 C 895.156 1063.71 892.333 1057.82 892.046 1046.9 L 874.464 1031.7 C 873.966 1032.12 873.474 1032.56 872.971 1032.98 C 869.689 1035.72 866.27 1037.75 861.81 1037.15 C 853.784 1036.08 847.313 1029.97 842.722 1023.7 C 831.274 1008.07 833.514 994.982 836.026 977.261 C 807.291 939.896 797.913 893.431 799.071 847.323 C 780.016 828.427 758.149 812.391 737.598 795.168 C 703.642 766.71 670.021 737.716 635.52 709.927 C 622.194 699.193 548.35 642.393 543.93 634.77 C 542.775 632.78 542.826 632.442 543.386 630.351 C 554.251 622.678 629.952 634.465 645.035 636.538 C 643.53 627.174 641.969 617.754 639.678 608.546 C 637.503 599.805 634.108 590.776 633.031 581.842 C 632.736 579.398 632.614 577.006 633.993 574.843 C 634.766 573.63 636.107 573.164 637.53 573.106 C 646.949 572.722 676.788 594.389 685.277 599.947 C 683.519 581.421 679.235 558.526 679.068 540.594 C 679.038 537.325 679.411 535.478 681.745 533.188 C 692.836 531.485 718.91 552.424 729.704 558.361 C 727.965 544.388 722.034 510.136 724.565 498.161 C 725.509 496.938 725.878 495.786 727.492 495.472 C 734.826 494.047 763.631 516.979 771.029 522.156 z"/>
<path transform="translate(0,0)" fill="rgb(254,254,254)" d="M 975.824 738.36 C 977.656 739.28 979.258 740.268 980.99 741.359 C 981.368 744.364 979.956 745.22 978.216 747.61 C 976.489 746.824 975.318 745.642 973.87 744.416 C 973.5 741.198 973.988 741.1 975.824 738.36 z"/>
<path transform="translate(0,0)" fill="rgb(254,254,254)" d="M 907.597 944.509 C 909.191 945.575 910.685 947.19 911.489 948.95 C 912.602 951.384 912.493 951.627 911.66 954.016 C 909.017 953.581 906.899 953.372 904.707 951.681 C 904.653 948.709 906.14 947.058 907.597 944.509 z"/>
<path transform="translate(0,0)" fill="rgb(254,254,254)" d="M 862.09 900.598 C 864.732 900.676 866.598 900.56 868.811 902.236 C 868.852 905.094 867.608 906.266 866.159 908.641 L 863.625 908.819 L 861.926 907.115 C 861.223 904.473 861.345 903.22 862.09 900.598 z"/>
<path transform="translate(0,0)" fill="rgb(254,254,254)" d="M 963.986 1062.51 C 965.583 1063.28 966.882 1064.02 968.234 1065.17 C 970.371 1066.99 971.276 1068.98 971.384 1071.72 C 968.345 1071.12 965.674 1070.74 963.052 1068.96 C 962.264 1066.07 962.963 1065.26 963.986 1062.51 z"/>
<path transform="translate(0,0)" fill="rgb(254,254,254)" d="M 897.517 845.163 C 899.46 846.128 900.701 847.102 902.247 848.62 C 901.819 851.494 900.575 852.232 898.632 854.328 L 893.892 850.898 L 893.828 849.052 L 897.517 845.163 z"/>
<path transform="translate(0,0)" fill="rgb(254,254,254)" d="M 863.663 794.397 C 865.456 794.531 866.608 794.821 868.238 795.581 C 868.849 799 867.035 801.009 865.493 804.056 C 863.982 803.283 862.559 802.064 861.172 801.073 C 860.707 798.041 862.088 796.953 863.663 794.397 z"/>
<path transform="translate(0,0)" fill="rgb(254,254,254)" d="M 826.539 852.771 C 827.96 854.573 827.592 853.655 827.967 855.876 C 828.585 859.527 828.895 864.323 826.721 867.338 C 825.603 865.32 823.331 861.792 823.226 859.447 C 823.082 856.246 824.682 855.058 826.539 852.771 z"/>
<path transform="translate(0,0)" fill="rgb(254,254,254)" d="M 1021.18 1076.56 C 1023.66 1077.24 1025.71 1077.92 1028.02 1079.09 C 1029.16 1082.1 1028.32 1083.02 1027.34 1086 A 159.681 159.681 0 0 1 1021.08 1082.39 C 1020 1079.68 1020.35 1079.41 1021.18 1076.56 z"/>
<path transform="translate(0,0)" fill="rgb(254,254,254)" d="M 1002.33 1072.57 C 1002.67 1072.74 1003.02 1072.89 1003.34 1073.08 C 1006.14 1074.8 1010.63 1079.16 1011.28 1082.23 C 1007.85 1081.6 1004.52 1081.23 1001.48 1079.43 C 1000.42 1076.36 1001.23 1075.55 1002.33 1072.57 z"/>
<path transform="translate(0,0)" fill="rgb(254,254,254)" d="M 862.784 762.687 C 864.983 763.485 867.03 764.408 869.138 765.412 L 869.434 767.172 L 866.79 769.674 C 864.635 770.642 862.783 771.832 860.369 771.2 C 859.884 768.138 861.622 765.526 862.784 762.687 z"/>
<path transform="translate(0,0)" fill="rgb(254,254,254)" d="M 899.424 809.97 C 900.935 811.34 901.147 811.727 901.891 813.523 C 901.395 816.522 899.179 818.259 897.153 820.347 C 895.41 818.529 894.356 817.196 893.377 814.868 C 894.746 812.166 896.855 811.499 899.424 809.97 z"/>
<path transform="translate(0,0)" fill="rgb(254,254,254)" d="M 823.985 901.032 C 824.273 901.01 824.56 900.971 824.849 900.965 C 827.791 900.905 831.718 901.146 833.853 903.322 L 833.72 905.15 L 830.062 908.298 L 829.858 910.55 L 828.921 910.455 C 827.051 907.367 825.403 904.354 823.985 901.032 z"/>
<path transform="translate(0,0)" fill="rgb(254,254,254)" d="M 897.165 746.184 C 899.573 747.65 900.604 747.9 901.806 750.513 C 899.797 753.195 897.481 753.732 894.458 755.094 L 891.415 754.5 L 890.88 753.059 C 892.811 750.589 894.968 748.412 897.165 746.184 z"/>
<path transform="translate(0,0)" fill="rgb(254,254,254)" d="M 894.867 774.253 C 897.28 774.897 898.991 775.704 901.117 777.011 C 902.037 779.999 901.389 780.428 900.18 783.211 C 897.533 783.189 895.452 783.428 893.249 781.712 C 892.696 778.449 893.611 777.258 894.867 774.253 z"/>
<path transform="translate(0,0)" fill="rgb(254,254,254)" d="M 960.803 899.191 C 963.923 898.872 967.234 898.055 970.129 899.54 C 970.583 902.347 969.547 902.99 968.139 905.314 C 965.727 905.271 963.489 905.358 961.227 904.382 C 959.629 903.692 959.867 903.131 959.339 901.629 L 960.803 899.191 z"/>
<path transform="translate(0,0)" fill="rgb(254,254,254)" d="M 897.514 760.77 C 899.469 761.504 900.723 761.954 902.14 763.523 C 901.604 766.592 899.032 768.191 896.857 770.356 C 894.665 769.111 893.443 768.596 892.307 766.233 C 893.529 763.083 894.798 762.673 897.514 760.77 z"/>
<path transform="translate(0,0)" fill="rgb(254,254,254)" d="M 884.683 873.797 C 886.78 873.913 887.657 874.052 889.331 875.348 C 888.61 878.409 885.794 880.65 883.665 882.966 C 881.538 881.715 879.989 881.002 878.687 878.826 C 880.092 876.106 882.114 875.393 884.683 873.797 z"/>
<path transform="translate(0,0)" fill="rgb(254,254,254)" d="M 985.847 712.325 C 986.142 712.256 986.434 712.172 986.732 712.117 C 991.648 711.208 996.529 711.317 1000.81 714.068 L 1001.2 716.998 C 1000.04 717.376 999.068 717.531 997.846 717.445 C 993.157 717.111 988.934 715.993 985.847 712.325 z"/>
<path transform="translate(0,0)" fill="rgb(254,254,254)" d="M 952.87 885.687 C 953.143 885.874 953.431 886.04 953.688 886.249 C 955.75 887.928 956.759 888.909 957.188 891.493 C 955.337 894.029 953.997 894.169 951.12 895.289 L 947.475 894.024 L 947.125 892.432 C 948.855 890.01 950.863 887.876 952.87 885.687 z"/>
<path transform="translate(0,0)" fill="rgb(254,254,254)" d="M 835.759 784.666 C 836.145 785.058 836.584 785.405 836.918 785.843 C 838.149 787.454 838.873 791.256 838.308 793.131 C 837.356 796.297 835.891 796.287 833.155 797.39 L 831.307 796.539 C 830.33 792.13 833.514 788.194 835.759 784.666 z"/>
<path transform="translate(0,0)" fill="rgb(254,254,254)" d="M 863.513 874.34 C 866.354 874.871 868.471 875.296 870.482 877.532 C 870.76 880.818 870.124 881.41 868.579 884.225 C 865.916 883.173 864.316 882.228 862.132 880.378 C 861.413 877.164 861.805 877.223 863.513 874.34 z"/>
<path transform="translate(0,0)" fill="rgb(254,254,254)" d="M 1172.61 884.523 L 1174.2 885.979 C 1175.41 889.504 1176.12 892.561 1174.42 896.119 L 1172.3 896.631 C 1170.9 895.303 1169.57 893.925 1168.22 892.544 C 1168.07 889.308 1170.68 887.066 1172.61 884.523 z"/>
<path transform="translate(0,0)" fill="rgb(254,254,254)" d="M 963.164 908.252 C 965.978 909.609 967.984 910.634 970.09 913.048 C 970.532 916.221 969.987 916.195 968.055 918.822 C 965.924 917.599 963.355 916.387 961.611 914.646 C 960.15 913.188 960.245 912.633 960.155 910.695 L 963.164 908.252 z"/>
<path transform="translate(0,0)" fill="rgb(254,254,254)" d="M 993.771 757.375 C 996.402 758.096 999.279 758.652 1001.62 760.1 C 1002.99 760.95 1002.5 760.747 1002.84 762.66 L 999.961 766.035 C 999.497 766.16 999.047 766.355 998.569 766.409 C 996.604 766.633 995.095 765.361 993.658 764.255 C 992.254 760.762 992.423 760.926 993.771 757.375 z"/>
<path transform="translate(0,0)" fill="rgb(254,254,254)" d="M 894.126 995.623 C 896.897 996.225 900.51 997.686 902.571 999.664 C 904.481 1001.5 904.397 1002.01 904.506 1004.49 C 903.573 1004.79 902.449 1005.2 901.476 1005.28 C 899.194 1005.49 897.751 1004.39 896.083 1003.05 C 894.502 1000.19 894.098 998.888 894.126 995.623 z"/>
<path transform="translate(0,0)" fill="rgb(254,254,254)" d="M 957.125 708.92 C 960.484 709.414 963.858 709.66 966.924 711.214 L 966.933 712.634 L 963.617 715.262 C 962.769 715.402 961.923 715.57 961.066 715.641 C 958.36 715.866 956.301 715.267 954.239 713.568 C 954.581 710.926 955.173 710.802 957.125 708.92 z"/>
<path transform="translate(0,0)" fill="rgb(254,254,254)" d="M 970.694 867.597 C 972.786 869.003 973.97 869.93 975.258 872.113 C 974.458 875.252 973.232 875.731 970.808 877.785 C 968.41 876.978 967.095 876.548 965.448 874.583 C 966.281 871.234 968.273 869.994 970.694 867.597 z"/>
<path transform="translate(0,0)" fill="rgb(254,254,254)" d="M 921.986 726.296 C 922.305 726.369 922.629 726.424 922.944 726.513 C 925.03 727.102 926.134 727.847 927.164 729.789 C 928.036 731.433 927.516 731.688 926.998 733.339 L 923.68 735.013 C 921.581 734.958 919.9 734.781 917.883 734.188 L 917.122 732.255 C 918.22 729.557 919.875 728.18 921.986 726.296 z"/>
<path transform="translate(0,0)" fill="rgb(254,254,254)" d="M 850.322 796.279 C 852.595 797.551 853.764 798.32 855.156 800.543 C 855.632 803.685 854.315 805.676 852.937 808.37 C 850.316 807.012 848.515 805.745 847.305 802.96 C 847.651 799.636 848.408 798.924 850.322 796.279 z"/>
<path transform="translate(0,0)" fill="rgb(254,254,254)" d="M 960.362 1048.43 C 963.804 1048.49 965.579 1049.62 968.065 1051.93 C 969.188 1055.22 969.001 1055.23 967.747 1058.52 C 964.555 1058.62 963.638 1057.68 961.284 1055.68 C 960.063 1052.49 959.904 1051.8 960.362 1048.43 z"/>
<path transform="translate(0,0)" fill="rgb(254,254,254)" d="M 920.924 926.221 C 921.419 926.364 921.918 926.493 922.409 926.65 C 926.125 927.839 928.271 930.718 929.979 934.034 L 928.207 935.042 L 927.855 934.791 C 926.938 934.55 925.685 934.576 924.76 934.578 C 922.434 934.585 921.004 934.996 919.025 933.59 C 918.569 930.767 919.794 928.716 920.924 926.221 z"/>
<path transform="translate(0,0)" fill="rgb(254,254,254)" d="M 940.029 711.015 C 940.703 711.014 941.379 710.951 942.05 711.014 C 944.594 711.252 944.969 711.829 946.418 713.705 L 945.752 715.574 C 942.889 717.175 941.436 716.54 938.23 716.201 C 935.57 716.118 933.627 716.576 931.448 714.917 C 933.756 712.705 937.059 712.009 940.029 711.015 z"/>
<path transform="translate(0,0)" fill="rgb(254,254,254)" d="M 1094.38 898.502 C 1095.21 898.519 1095.57 898.49 1096.46 898.72 C 1099.67 899.551 1102.58 900.918 1104.06 904.056 C 1104.94 905.933 1104.17 906.724 1103.58 908.588 C 1103.06 908.527 1102.55 908.501 1102.04 908.404 C 1099.38 907.89 1096.24 906.371 1094.78 903.972 C 1093.33 901.589 1093.77 901.07 1094.38 898.502 z"/>
<path transform="translate(0,0)" fill="rgb(254,254,254)" d="M 1161.8 838.372 C 1164.42 839.352 1165.42 840.73 1166.64 843.167 C 1166.34 846.715 1166.18 846.616 1163.63 849.154 C 1161.1 847.597 1158.75 846.311 1156.91 843.909 C 1157.81 840.995 1159.47 840.261 1161.8 838.372 z"/>
<path transform="translate(0,0)" fill="rgb(254,254,254)" d="M 1144.02 849.691 C 1146.23 850.73 1145.47 850.106 1146.98 851.715 C 1148.06 852.859 1149.02 853.752 1150.25 854.714 C 1152.4 854.476 1154.12 854.305 1156.25 854.742 L 1156.95 856.676 L 1155.55 859.449 L 1151.72 857.264 C 1148.25 857.473 1145.05 857.584 1142.21 855.519 C 1142.11 852.742 1142.64 852.157 1144.02 849.691 z"/>
<path transform="translate(0,0)" fill="rgb(254,254,254)" d="M 1014.98 744.126 C 1018.06 744.377 1022.43 744.167 1024.86 746.153 C 1024.48 748.784 1022.8 749.543 1020.9 751.285 C 1018.28 752.25 1017.61 751.479 1015.1 750.6 C 1013.4 748.639 1013.13 748.641 1013.08 746.089 L 1014.98 744.126 z"/>
<path transform="translate(0,0)" fill="rgb(254,254,254)" d="M 1077.94 913.944 C 1080.09 915.319 1081.64 916.532 1083.4 918.424 C 1083.6 921.39 1083 921.626 1081.25 924.099 C 1078.04 923.344 1075.4 922.869 1073.23 920.334 C 1073.99 917.149 1075.63 916.197 1077.94 913.944 z"/>
<path transform="translate(0,0)" fill="rgb(254,254,254)" d="M 956.411 773.838 C 959.408 773.9 961.948 773.978 964.351 775.854 C 963.707 779.065 962.195 780.069 959.997 782.436 C 957.329 782.13 955.567 781.392 953.734 779.459 C 953.593 776.174 954.269 776.173 956.411 773.838 z"/>
<path transform="translate(0,0)" fill="rgb(254,254,254)" d="M 1105.05 791.569 C 1106.83 793.05 1108.77 794.521 1110.18 796.37 C 1111.47 798.06 1111.8 798.195 1111.52 800.372 C 1109.19 801.411 1107.59 800.842 1105.19 800.382 C 1100.1 794.479 1102.36 798.609 1096.35 796.68 L 1097.87 796.199 C 1098.05 795.992 1098.18 795.73 1098.41 795.577 C 1099.99 794.514 1101.84 793.872 1103.45 792.72 L 1105.05 791.569 z"/>
<path transform="translate(0,0)" fill="rgb(254,254,254)" d="M 837.646 803.556 C 838.68 804.489 838.664 804.304 839.313 805.691 C 841.709 810.81 839.582 818.272 837.568 823.258 C 837.219 818.802 835.221 816.06 834.388 812.005 C 833.692 808.613 835.984 806.294 837.646 803.556 z"/>
<path transform="translate(0,0)" fill="rgb(254,254,254)" d="M 936.366 808.061 C 938.856 809.249 940.267 809.793 941.842 812.168 C 941.046 815.274 939.434 815.98 937.03 818.021 C 934.697 817.033 932.735 816.261 930.882 814.456 C 931.446 811.533 934.182 810.024 936.366 808.061 z"/>
<path transform="translate(0,0)" fill="rgb(254,254,254)" d="M 1056 915.292 C 1058.78 915.897 1060.72 917.215 1062.38 919.471 C 1062.54 922.913 1061.85 923.087 1059.79 925.704 C 1057.02 925.048 1054.77 924.143 1052.79 922.036 C 1052.67 918.475 1053.81 917.987 1056 915.292 z"/>
<path transform="translate(0,0)" fill="rgb(254,254,254)" d="M 910.241 744.697 C 913.651 744.84 921.459 744.367 923.941 746.212 L 921.451 748.743 C 919.911 749.602 918.203 750.669 916.51 751.167 C 913.902 751.934 912.22 751.326 909.951 750.123 C 909.14 747.614 909.443 747.258 910.241 744.697 z"/>
<path transform="translate(0,0)" fill="rgb(254,254,254)" d="M 896.53 823.525 C 898.955 824.919 901.19 825.898 902.533 828.485 C 902.522 831.245 900.933 833.018 899.428 835.187 C 898.845 835.086 898.245 835.05 897.677 834.883 C 895.517 834.248 894.591 832.792 893.54 830.964 C 893.732 826.975 894.244 826.605 896.53 823.525 z"/>
<path transform="translate(0,0)" fill="rgb(254,254,254)" d="M 986.06 881.085 C 988.158 882.307 990.673 884.666 991.662 886.878 C 992.315 888.34 991.725 888.802 991.187 890.164 L 988.282 891.301 C 985.473 889.546 982.255 887.909 980.2 885.264 C 981.41 882.602 983.501 882.316 986.06 881.085 z"/>
<path transform="translate(0,0)" fill="rgb(254,254,254)" d="M 981.613 997.793 C 982.978 999.696 984.03 1001.69 985.151 1003.74 C 984.243 1007.31 981.835 1008.56 979.12 1010.98 C 977.274 1010.09 976.393 1009.67 975.376 1007.85 C 975.67 1004.12 979.344 1000.64 981.613 997.793 z"/>
<path transform="translate(0,0)" fill="rgb(254,254,254)" d="M 1141.39 922.812 C 1145.25 922.961 1149.3 922.702 1152.64 924.858 C 1154.09 927.619 1153.99 927.698 1153.43 930.788 C 1150.15 931.74 1149.81 931.733 1146.54 930.726 C 1143.86 928.227 1142.78 926.183 1141.39 922.812 z"/>
<path transform="translate(0,0)" fill="rgb(254,254,254)" d="M 866.001 812.57 C 869.16 814.371 870.116 815.116 871.437 818.456 C 870.953 821.858 869.541 823.234 867.301 825.621 C 865.202 823.643 863.517 822.088 862.271 819.416 C 862.29 816.471 864.232 814.722 866.001 812.57 z"/>
<path transform="translate(0,0)" fill="rgb(254,254,254)" d="M 850.195 853.282 C 851.983 853.953 852.743 854.71 854.141 855.969 C 856.206 860.69 855.504 864.667 854.344 869.555 C 853.09 868.871 852.003 867.955 850.864 867.096 C 848.193 862.048 848.921 858.711 850.195 853.282 z"/>
<path transform="translate(0,0)" fill="rgb(254,254,254)" d="M 1108.27 938.489 C 1109.23 938.548 1109.59 938.518 1110.6 938.866 C 1113.11 939.726 1114.33 941.08 1115.55 943.295 C 1115.14 946.829 1114.23 947.19 1111.83 949.697 C 1110.34 948.566 1108.65 947.439 1107.32 946.136 C 1105.38 944.251 1105.31 943.964 1105.27 941.435 L 1108.27 938.489 z"/>
<path transform="translate(0,0)" fill="rgb(254,254,254)" d="M 835.708 838.948 C 838.31 840.39 840.763 841.202 843.233 843.023 C 843.664 846.193 842.715 847.099 841.263 849.882 L 838.271 850.471 C 835.948 849.601 835.835 849.487 834.435 847.434 C 834.037 844.028 834.497 842.135 835.708 838.948 z"/>
<path transform="translate(0,0)" fill="rgb(254,254,254)" d="M 943.802 903.109 L 944.579 903.066 L 945.768 906.161 C 947.625 907.619 949.248 908.844 950.694 910.733 C 948.407 912.315 945.977 912.242 943.3 912.442 C 940.585 910.388 937.496 908.278 936.366 904.945 C 938.213 902.946 940.739 904.876 943.802 903.109 z"/>
<path transform="translate(0,0)" fill="rgb(254,254,254)" d="M 937.898 755.467 C 940.503 756.517 942.172 757.753 943.32 760.331 C 942.327 763.509 941.394 763.682 938.748 765.561 C 935.959 764.495 933.247 763.69 931.044 761.587 C 932.258 758.78 935.408 757.238 937.898 755.467 z"/>
<path transform="translate(0,0)" fill="rgb(254,254,254)" d="M 913.725 807.594 C 916.244 808.344 919.191 809.663 920.693 811.918 C 921.518 813.157 921.073 813.943 920.891 815.313 L 917.065 818.008 C 914.255 817.211 912.038 816.217 910.217 813.903 C 910.279 810.49 911.473 810.046 913.725 807.594 z"/>
<path transform="translate(0,0)" fill="rgb(254,254,254)" d="M 1148.26 903.429 L 1159.18 904.768 C 1161.82 906.913 1161.48 908.301 1162.07 911.571 C 1160.02 912.018 1157.76 912.625 1155.66 912.131 C 1151.61 911.179 1149.97 906.756 1148.26 903.429 z"/>
<path transform="translate(0,0)" fill="rgb(254,254,254)" d="M 899.785 959.168 C 902.974 958.944 906.613 959.006 909.585 960.325 C 913.963 962.268 915.366 966.398 916.863 970.54 C 911.455 970.092 903.69 963.03 899.785 959.168 z"/>
<path transform="translate(0,0)" fill="rgb(254,254,254)" d="M 962.232 922.697 C 964.661 923.907 966.744 924.742 968.326 927.062 C 967.628 930.403 966.16 931.293 963.816 933.704 C 963.436 933.643 963.037 933.655 962.676 933.52 C 960.104 932.559 958.704 930.724 957.767 928.347 C 958.494 924.709 959.314 924.784 962.232 922.697 z"/>
<path transform="translate(0,0)" fill="rgb(254,254,254)" d="M 1093.77 934.229 C 1095.64 934.926 1098.1 936.223 1099.54 937.612 C 1101.32 939.32 1101.26 940.052 1101.34 942.328 L 1098.13 944.953 L 1095.95 945.256 C 1093.25 944.072 1092.7 943.993 1091.11 941.559 C 1090.93 937.424 1091.39 937.381 1093.77 934.229 z"/>
<path transform="translate(0,0)" fill="rgb(254,254,254)" d="M 958.497 738.568 C 961.049 739.68 963.382 740.406 965 742.812 C 963.796 745.888 961.943 746.536 959.265 748.38 C 958.616 748.263 957.956 748.201 957.319 748.03 C 954.832 747.359 953.603 746.307 952.698 744.011 C 954.251 741.046 955.753 740.404 958.497 738.568 z"/>
<path transform="translate(0,0)" fill="rgb(254,254,254)" d="M 880.578 856.959 C 883.279 857.968 885.23 858.478 886.859 861.044 C 886.35 864.32 885.049 865.42 883.025 867.991 C 879.819 866.813 877.735 865.523 876.068 862.514 C 877.016 859.274 877.982 858.989 880.578 856.959 z"/>
<path transform="translate(0,0)" fill="rgb(254,254,254)" d="M 851.665 879.827 C 853.546 882.401 855.971 885.19 856.379 888.451 C 856.788 891.731 855.15 893.727 853.363 896.226 L 852.692 896.459 L 850.774 895.224 C 848.828 889.295 849.092 885.533 851.665 879.827 z"/>
<path transform="translate(0,0)" fill="rgb(254,254,254)" d="M 940.394 919.339 C 944.283 919.745 946.505 920.566 949.574 922.888 C 950.81 925.529 951.068 925.828 950.612 928.67 C 947.485 929.758 946.429 930.409 943.119 929.75 C 940.812 926.973 940.82 922.828 940.394 919.339 z"/>
<path transform="translate(0,0)" fill="rgb(254,254,254)" d="M 1168.33 923.734 C 1169.28 923.071 1169.96 923.011 1171.09 922.791 L 1171.98 923.874 C 1172.22 928.943 1172.99 930.473 1169.63 934.547 C 1167.19 933.007 1164.3 930.92 1162.83 928.404 C 1162 926.977 1162.55 926.53 1162.98 925.072 C 1164.75 924.144 1166.36 923.987 1168.33 923.734 z"/>
<path transform="translate(0,0)" fill="rgb(254,254,254)" d="M 1019.11 826.9 C 1019.95 827.474 1020.29 827.624 1020.97 828.552 C 1022.51 830.671 1022.79 832.908 1022.49 835.362 L 1020.9 836.446 L 1016.77 835.377 C 1014.14 834.742 1011.02 834.499 1009.26 832.274 C 1010.9 829.525 1016.21 828.113 1019.11 826.9 z"/>
<path transform="translate(0,0)" fill="rgb(254,254,254)" d="M 879.343 803.609 C 880.669 804.838 881.678 806.697 882.729 808.175 C 883.893 809.814 885.014 811.135 885.434 813.179 C 885.803 814.974 884.361 816.159 883.414 817.608 L 880.555 817.755 C 878.213 816.198 877.523 815.928 876.898 812.994 C 876.179 809.617 877.718 806.431 879.343 803.609 z"/>
<path transform="translate(0,0)" fill="rgb(254,254,254)" d="M 836.856 870.372 C 839.224 872.319 842.167 876.07 842.871 879.104 C 843.611 882.29 842.647 882.918 841.085 885.504 L 839.698 885.623 C 838.285 884.751 837.133 884.388 836.335 882.849 C 834.139 878.612 835.368 874.599 836.856 870.372 z"/>
<path transform="translate(0,0)" fill="rgb(254,254,254)" d="M 928.201 964.057 C 930.678 965.486 932.885 966.649 934.734 968.9 C 934.727 972.078 933.584 972.575 931.55 974.919 L 920.873 970.394 A 621.849 621.849 0 0 1 928.201 964.057 z"/>
<path transform="translate(0,0)" fill="rgb(254,254,254)" d="M 930.678 792.024 C 934.299 791.927 939.037 791.428 942.097 793.552 L 942.396 795.516 L 939.908 798.699 C 936.93 799.226 933.198 799.775 930.355 798.436 C 928.935 797.766 929.108 796.871 928.689 795.488 L 930.678 792.024 z"/>
<path transform="translate(0,0)" fill="rgb(254,254,254)" d="M 882.932 750.947 L 887.147 754.141 L 887.267 755.87 C 885.096 757.996 882.823 759.962 880.514 761.935 C 878.513 760.377 876.689 758.789 874.853 757.039 L 874.813 755.343 C 877.417 753.626 880.129 752.305 882.932 750.947 z"/>
<path transform="translate(0,0)" fill="rgb(254,254,254)" d="M 957.51 722.117 C 960.592 723.13 964.884 723.983 967.113 726.358 C 966.433 728.875 965.354 728.866 963.248 730.247 C 961.415 730.675 959.497 730.849 957.628 730.512 C 955.329 730.098 954.215 728.938 953.157 727.027 C 953.929 724.026 955.036 723.856 957.51 722.117 z"/>
<path transform="translate(0,0)" fill="rgb(254,254,254)" d="M 1072.25 820.513 C 1074.69 822.338 1076.88 822.456 1078.72 825.135 C 1076.71 827.599 1074.12 829.479 1071.67 831.473 C 1069.73 828.381 1066.98 827.02 1064.18 824.83 C 1066.83 823.268 1069.48 821.859 1072.25 820.513 z"/>
<path transform="translate(0,0)" fill="rgb(254,254,254)" d="M 962.099 1029.73 C 964.737 1032.68 968.498 1035.72 968.813 1039.83 L 966.153 1042.82 L 956.351 1038.1 L 962.099 1029.73 z"/>
<path transform="translate(0,0)" fill="rgb(254,254,254)" d="M 894.222 790.561 C 897.51 791.223 899.414 791.869 901.531 794.559 C 901.934 798.241 901.489 798.698 899.855 801.866 C 896.677 800.8 893.376 800.179 891.268 797.391 C 891.295 794.02 892.32 793.265 894.222 790.561 z"/>
<path transform="translate(0,0)" fill="rgb(254,254,254)" d="M 1028.98 844.889 C 1030.52 844.839 1032.54 844.626 1034.03 844.995 C 1036.56 845.624 1037.81 847.256 1039.3 849.236 C 1039.99 852.723 1040.17 853.428 1038.98 856.943 C 1037.62 856.703 1036.73 856.771 1035.62 855.89 C 1031.71 852.783 1029.6 849.891 1028.98 844.889 z"/>
<path transform="translate(0,0)" fill="rgb(254,254,254)" d="M 1070.52 934.439 C 1071.84 934.584 1072.1 934.568 1073.51 934.968 C 1076.16 935.714 1078.09 936.971 1079.45 939.376 C 1079.26 943.093 1078.28 943.311 1075.75 945.894 C 1073.89 944.639 1071.68 943.379 1070.03 941.867 C 1067.99 939.991 1067.96 939.453 1067.85 936.89 L 1070.52 934.439 z"/>
<path transform="translate(0,0)" fill="rgb(254,254,254)" d="M 1113.8 902.907 C 1114.88 903.069 1116.56 903.189 1117.61 903.611 C 1119.9 904.531 1120.05 904.675 1120.84 906.993 C 1120.14 910.162 1118.44 911.58 1116.22 913.747 C 1113.56 911.892 1110.55 910.261 1108.91 907.383 L 1109.52 905.229 L 1113.8 902.907 z"/>
<path transform="translate(0,0)" fill="rgb(254,254,254)" d="M 877.863 826.168 C 880.029 827.266 881.762 827.638 882.612 830.132 C 883.932 834.004 884.691 842.093 882.887 845.855 L 879.467 843.028 C 877.79 837.669 876.306 831.477 877.863 826.168 z"/>
<path transform="translate(0,0)" fill="rgb(254,254,254)" d="M 960.392 787.661 C 963.006 788.406 965.119 788.933 967.262 790.716 C 966.111 793.785 963.113 795.44 960.576 797.473 C 958.217 798.36 957.942 798.662 955.556 797.996 L 954.947 795.277 C 956.249 791.143 957.082 790.557 960.392 787.661 z"/>
<path transform="translate(0,0)" fill="rgb(254,254,254)" d="M 851.15 777.232 C 854.035 778.45 856.033 780.155 857.244 783.095 C 856.473 786.815 855.434 787.013 852.566 789.347 L 850.137 790.445 L 848.487 789.797 C 848.332 789.343 848.137 788.9 848.022 788.434 C 846.971 784.135 848.813 780.697 851.15 777.232 z"/>
<path transform="translate(0,0)" fill="rgb(254,254,254)" d="M 1096.73 881.563 C 1097.28 881.645 1097.83 881.652 1098.36 881.809 C 1100.55 882.459 1101.74 883.714 1102.4 885.914 C 1103.04 888.069 1101.97 889.794 1100.91 891.555 L 1097.01 892.071 C 1094.48 890.731 1092.24 889.816 1090.74 887.247 C 1091.66 884.359 1094.33 883.145 1096.73 881.563 z"/>
<path transform="translate(0,0)" fill="rgb(254,254,254)" d="M 986.695 895.577 C 989.031 897.03 991.301 898.076 992.46 900.708 C 991.258 903.841 988.726 905.142 986.139 907.222 C 985.86 907.163 985.569 907.144 985.301 907.044 C 983.115 906.23 981.743 905.237 980.684 903.218 C 981.475 899.784 984.214 897.87 986.695 895.577 z"/>
<path transform="translate(0,0)" fill="rgb(254,254,254)" d="M 978.907 773.175 L 987.204 777.106 L 977.299 784.18 L 976.357 784.735 C 974.09 783.118 972.788 780.961 972.296 778.237 C 974.384 776.396 976.658 774.808 978.907 773.175 z"/>
<path transform="translate(0,0)" fill="rgb(254,254,254)" d="M 912.119 831.753 C 912.517 832.019 913.526 832.666 913.817 832.987 C 915.654 835.009 917.007 836.657 917.347 839.321 C 916.116 841.568 914.499 843.312 912.803 845.203 L 912.436 845.205 C 909.988 843.143 908.184 841.229 907.301 838.082 C 907.93 834.613 909.515 834.025 912.119 831.753 z"/>
<path transform="translate(0,0)" fill="rgb(254,254,254)" d="M 999.369 840.673 C 1001.57 841.984 1004 843.919 1004.97 846.32 C 1004.05 849.699 1001.92 851.132 999.483 853.594 C 997.983 853.765 997.056 852.944 995.727 852.287 C 995.306 851.241 994.921 850.449 994.778 849.289 C 994.368 845.95 997.402 843.036 999.369 840.673 z"/>
<path transform="translate(0,0)" fill="rgb(254,254,254)" d="M 1098.11 772.664 C 1099.5 773.107 1098.99 777.094 1099.41 778.102 C 1099.67 778.718 1102.73 780.776 1103.46 781.37 L 1102.71 782.748 C 1101.13 782.565 1099.93 781.485 1098.61 780.646 C 1096.9 780.963 1094.19 781.38 1092.51 780.83 C 1089.89 779.967 1089.53 779.297 1088.43 777.003 L 1089.6 774.624 C 1092.49 772.455 1094.68 772.649 1098.11 772.664 z"/>
<path transform="translate(0,0)" fill="rgb(254,254,254)" d="M 1052.43 831.217 C 1054.53 832.047 1057.11 833.558 1058.72 835.159 C 1060.47 836.895 1060.44 837.58 1060.52 839.852 L 1056.61 843.174 L 1054.74 844.385 C 1052.37 842.358 1050.45 839.221 1049.77 836.15 C 1049.38 834.381 1051.39 832.623 1052.43 831.217 z"/>
<path transform="translate(0,0)" fill="rgb(254,254,254)" d="M 938.556 736.688 C 941.611 739.395 944.354 739.986 948.133 741.095 C 947.929 743.447 946.037 744.29 944.31 745.801 C 942.289 746.671 940.723 746.907 938.535 747.068 C 936.135 745.838 936.031 745.828 934.875 743.407 C 935.164 739.522 935.93 739.388 938.556 736.688 z"/>
<path transform="translate(0,0)" fill="rgb(254,254,254)" d="M 1075.73 949.63 C 1078.2 951.392 1081.64 953.652 1082.51 956.656 C 1081.35 959.681 1080.15 959.79 1077.41 961.36 L 1075.64 961.483 C 1072.86 960.1 1072.77 960.265 1071.62 957.423 C 1072.26 953.243 1073.03 952.716 1075.73 949.63 z"/>
<path transform="translate(0,0)" fill="rgb(254,254,254)" d="M 818.457 876.283 C 822.824 876.708 826.915 876.464 830.182 879.591 C 830.838 883.118 829.657 885.973 828.612 889.29 L 826.558 889.95 C 823.402 887.706 821.491 879.821 818.457 876.283 z"/>
<path transform="translate(0,0)" fill="rgb(254,254,254)" d="M 828.517 917.593 C 832.286 917.749 837.565 917.409 840.894 919.337 C 843.527 920.862 844.074 923.253 844.844 925.961 C 841.343 925.37 837.712 925.408 834.167 925.323 C 830.829 923.183 830.29 921.081 828.517 917.593 z"/>
<path transform="translate(0,0)" fill="rgb(254,254,254)" d="M 864.448 834.714 C 866.546 837.2 868.71 839.371 869.622 842.571 C 869.612 845.857 867.707 847.947 865.9 850.514 C 863.64 848.651 862.242 847.325 860.704 844.767 C 860.397 840.985 862.662 837.89 864.448 834.714 z"/>
<path transform="translate(0,0)" fill="rgb(254,254,254)" d="M 991.303 740.46 C 993.008 740.555 994.84 740.583 996.509 740.943 C 998.937 741.467 1000 742.317 1001.43 744.258 C 1001.3 747.597 1000.46 748.051 998.439 750.605 C 996.453 750.182 993.952 749.297 992.206 748.27 C 989.897 746.912 989.721 746.265 988.876 743.888 L 991.303 740.46 z"/>
<path transform="translate(0,0)" fill="rgb(254,254,254)" d="M 1039.09 1042.72 L 1048.25 1048.73 L 1042.5 1055.29 C 1041.55 1055.64 1040.68 1055.06 1039.74 1054.74 C 1038.12 1053.06 1036.84 1051.38 1036.34 1049.02 C 1035.71 1046.02 1037.39 1044.89 1039.09 1042.72 z"/>
<path transform="translate(0,0)" fill="rgb(254,254,254)" d="M 1078.26 896.899 C 1078.45 896.967 1078.67 896.985 1078.83 897.105 C 1081.27 898.894 1082.82 901.289 1083.02 904.186 C 1081.3 906.641 1080.1 906.698 1077.34 907.731 C 1074.39 906.193 1071.13 905.026 1068.06 903.732 L 1078.26 896.899 z"/>
<path transform="translate(0,0)" fill="rgb(254,254,254)" d="M 1039.05 984.993 C 1041.45 986.561 1043.71 987.777 1045.17 990.346 C 1044.35 993.572 1042.18 995.013 1039.87 997.36 C 1036.91 996.132 1034.93 994.359 1033.63 991.521 C 1034.77 987.865 1036.12 987.342 1039.05 984.993 z"/>
<path transform="translate(0,0)" fill="rgb(254,254,254)" d="M 1074.16 970.492 C 1076.88 972.1 1079.78 973.558 1081.2 976.5 C 1080.61 980.029 1079.32 980.762 1076.9 983.315 C 1073.99 982.031 1071.65 980.227 1070.31 977.3 C 1070.71 973.547 1071.65 973.173 1074.16 970.492 z"/>
<path transform="translate(0,0)" fill="rgb(254,254,254)" d="M 1134.92 867.88 C 1137.43 868.909 1139.65 870.157 1141.97 871.54 L 1142.13 873.251 C 1140.91 874.616 1139.83 875.903 1138.83 877.439 C 1138.55 877.866 1138.28 878.303 1138.01 878.735 A 118.195 118.195 0 0 1 1136 877.69 C 1132.98 876.087 1129.57 874.614 1128.53 871.272 C 1130.12 868.963 1132.38 868.628 1134.92 867.88 z"/>
<path transform="translate(0,0)" fill="rgb(254,254,254)" d="M 1091.61 954.1 C 1092.04 954.182 1092.5 954.181 1092.91 954.345 C 1095.01 955.195 1097.6 957.855 1097.92 960.133 C 1098.38 963.381 1096.16 964.46 1094.07 966.374 C 1091.29 964.563 1087.44 962.175 1086.2 959.069 C 1087.1 956.129 1089.06 955.688 1091.61 954.1 z"/>
<path transform="translate(0,0)" fill="rgb(254,254,254)" d="M 979.493 1015.13 C 981.879 1017.39 984.441 1019.37 985.663 1022.5 C 984.957 1025.5 983.729 1026.36 981.652 1028.59 C 978.834 1026.71 975.404 1024.94 974.403 1021.52 C 975.551 1018.2 976.901 1017.42 979.493 1015.13 z"/>
<path transform="translate(0,0)" fill="rgb(254,254,254)" d="M 910.326 774.85 C 914.375 774.454 918.721 774.438 922.35 776.4 C 923.882 778.89 923.606 778.793 922.922 781.68 C 921.478 782.225 919.984 782.811 918.468 783.119 C 915.821 783.657 913.886 783.158 911.604 781.771 C 910.017 778.801 910.17 778.098 910.326 774.85 z"/>
<path transform="translate(0,0)" fill="rgb(254,254,254)" d="M 938.246 772.732 C 940.872 774.096 943.84 775.226 945.661 777.639 C 944.902 780.624 942.875 781.515 940.531 783.433 C 939.457 783.55 937.776 783.302 936.764 783.03 C 934.276 782.361 933.892 781.977 932.845 779.84 C 933.744 775.791 935.145 775.348 938.246 772.732 z"/>
<path transform="translate(0,0)" fill="rgb(254,254,254)" d="M 1035.97 1004.27 C 1037.29 1004.52 1037.61 1004.53 1038.99 1005.02 C 1041.59 1005.93 1043.06 1007.49 1044.36 1009.86 C 1044.52 1013.69 1043.94 1014.28 1042.1 1017.5 C 1039.02 1015.66 1035.74 1014.13 1033.83 1010.97 C 1033.6 1007.44 1034.12 1007.15 1035.97 1004.27 z"/>
<path transform="translate(0,0)" fill="rgb(254,254,254)" d="M 1133.25 902.447 C 1134.33 902.636 1135.43 902.822 1136.5 903.078 C 1139.46 903.785 1140.84 904.756 1142.41 907.331 C 1142.47 910.694 1141.05 912.352 1139.21 914.963 C 1137.66 914.414 1137.94 914.622 1136.74 913.859 C 1133.95 912.094 1131.93 910.587 1131.35 907.137 C 1130.98 904.953 1132.11 904.213 1133.25 902.447 z"/>
<path transform="translate(0,0)" fill="rgb(254,254,254)" d="M 976.413 721.682 C 977.431 721.755 979.064 721.828 980.012 722.1 C 982.659 722.859 983.243 723.763 984.534 725.948 C 984.037 729.287 983.255 729.968 981.212 732.554 C 979.962 732.466 979.26 732.462 977.978 732.138 C 975.308 731.461 974.072 730.296 972.682 728.056 C 973.268 724.714 974.182 724.138 976.413 721.682 z"/>
<path transform="translate(0,0)" fill="rgb(254,254,254)" d="M 995.797 863.001 C 996.365 863.436 997.056 863.919 997.493 864.487 C 999.063 866.527 998.956 867.116 998.443 869.426 C 995.753 872.215 992.987 873.213 989.42 874.607 C 988.823 874.109 988.018 873.477 987.54 872.884 C 986.025 871.005 985.965 870.454 986.296 868.243 C 988.641 865.452 992.488 864.351 995.797 863.001 z"/>
<path transform="translate(0,0)" fill="rgb(254,254,254)" d="M 1039.89 1022.55 C 1040.42 1022.74 1040.9 1023.04 1041.38 1023.33 C 1050.35 1028.72 1044.63 1028.93 1046.75 1036.62 C 1043.09 1034.68 1037.53 1032.65 1035.7 1028.85 C 1036.18 1025.43 1037.46 1024.9 1039.89 1022.55 z"/>
<path transform="translate(0,0)" fill="rgb(254,254,254)" d="M 1112.68 954.745 C 1114.27 955.296 1116.63 955.982 1117.91 957.054 C 1119.77 958.609 1120.36 960.082 1120.52 962.416 C 1119.26 965.12 1119.01 965.343 1116.48 966.939 C 1113.52 965.139 1109.58 963.387 1108.11 960.153 C 1108.98 957.221 1110.35 956.647 1112.68 954.745 z"/>
<path transform="translate(0,0)" fill="rgb(254,254,254)" d="M 1032.44 813.325 C 1033.78 813.471 1035.19 813.572 1036.5 813.975 C 1038.69 814.655 1041.67 816.321 1042.49 818.576 C 1043.59 821.582 1042.68 822.772 1041.44 825.464 C 1041.08 825.543 1040.74 825.654 1040.38 825.701 C 1038.2 825.989 1036.03 825.18 1034.51 823.564 C 1031.74 820.636 1031.9 817.015 1032.44 813.325 z"/>
<path transform="translate(0,0)" fill="rgb(254,254,254)" d="M 1092.07 917.944 C 1092.43 918.003 1092.81 918.016 1093.17 918.123 C 1096.08 918.997 1097.84 920.043 1099.38 922.565 C 1098.51 926.288 1097.19 926.959 1094.47 929.545 C 1091.63 927.928 1088.01 926.083 1086.76 922.944 C 1087.91 919.804 1089.26 919.621 1092.07 917.944 z"/>
<path transform="translate(0,0)" fill="rgb(254,254,254)" d="M 1056.92 929.783 C 1059.54 931.678 1062.52 933.216 1063.5 936.459 C 1062.33 939.53 1060.78 940.413 1058.31 942.522 C 1055.13 941.22 1052.95 939.951 1051.58 936.807 C 1052.66 933.254 1054.25 932.292 1056.92 929.783 z"/>
<path transform="translate(0,0)" fill="rgb(254,254,254)" d="M 1007.34 726.79 C 1011.41 726.638 1016.45 726.909 1019.68 729.787 C 1021.93 731.794 1021.77 732.862 1021.66 735.581 C 1018.3 735.576 1014.47 735.368 1011.24 734.504 C 1008.69 733.824 1007.75 732.598 1006.39 730.488 L 1007.34 726.79 z"/>
<path transform="translate(0,0)" fill="rgb(254,254,254)" d="M 977.548 753.776 C 980.368 756.175 984.325 757.525 986.229 760.725 C 984.166 763.007 982.181 763.282 979.304 764.276 L 978.88 765.269 L 977.26 765.433 C 974.709 763.558 973.735 763.24 972.637 760.194 C 973.55 756.869 975.045 756.071 977.548 753.776 z"/>
<path transform="translate(0,0)" fill="rgb(254,254,254)" d="M 1057.11 967.68 C 1060.12 968.926 1062.74 970.667 1064.27 973.496 C 1063.46 976.934 1062.17 977.349 1059.5 979.546 C 1058.82 979.471 1058.13 979.474 1057.47 979.32 C 1054.91 978.722 1053.69 976.845 1052.7 974.672 C 1053.24 970.516 1054.11 970.413 1057.11 967.68 z"/>
<path transform="translate(0,0)" fill="rgb(254,254,254)" d="M 956.266 754.498 C 956.565 754.535 956.867 754.551 957.163 754.608 C 960.486 755.239 963.773 756.514 965.757 759.335 C 966.203 762.639 965.413 762.997 963.644 765.71 C 963.357 765.674 963.067 765.654 962.782 765.604 C 959.514 765.033 955.54 764.089 953.577 761.267 C 953.464 757.826 954.354 757.262 956.266 754.498 z"/>
<path transform="translate(0,0)" fill="rgb(254,254,254)" d="M 996.822 999.87 C 999.889 1001.09 1002.43 1002.08 1004.19 1005.03 C 1004.12 1008.81 1002.89 1010.04 1000.92 1013.2 C 998.022 1010.29 994.04 1008.66 992.034 1004.99 C 992.941 1002.08 994.401 1001.62 996.822 999.87 z"/>
<path transform="translate(0,0)" fill="rgb(254,254,254)" d="M 980.462 1052.58 C 981.794 1052.68 983.184 1052.73 984.483 1053.09 C 987.244 1053.84 988.996 1055.09 990.469 1057.55 C 990.662 1061.3 990.156 1061.61 988.197 1064.65 C 987.134 1064.64 986.994 1064.7 985.817 1064.36 C 983.456 1063.67 980.62 1061.58 979.703 1059.29 C 978.535 1056.37 979.338 1055.28 980.462 1052.58 z"/>
<path transform="translate(0,0)" fill="rgb(254,254,254)" d="M 1017.7 1000.51 C 1020.63 1002.09 1024.2 1003.44 1025.72 1006.56 C 1025.51 1009.88 1024.35 1010.97 1022.52 1013.69 C 1021.53 1013.54 1021.46 1013.57 1020.36 1013.17 C 1017.76 1012.23 1015.95 1011 1014.65 1008.53 C 1014.68 1004.49 1015.53 1003.79 1017.7 1000.51 z"/>
<path transform="translate(0,0)" fill="rgb(254,254,254)" d="M 1055.72 800.736 C 1058.54 801.908 1062.62 803.864 1064.05 806.623 C 1063.72 810.092 1062.36 810.947 1060.15 813.559 C 1059.64 813.377 1059.13 813.232 1058.64 813.012 C 1055.94 811.791 1053.45 809.958 1052.2 807.247 C 1052.33 803.632 1053.33 803.323 1055.72 800.736 z"/>
<path transform="translate(0,0)" fill="rgb(254,254,254)" d="M 912.212 790.541 C 916.225 790.44 920.275 790.443 923.363 793.328 C 924.002 796.4 923.574 796.546 922.078 799.368 C 920.503 799.71 918.554 800.3 916.953 800.271 C 914.246 800.221 913.508 799.683 911.583 798.051 C 910.652 795.035 911.266 793.394 912.212 790.541 z"/>
<path transform="translate(0,0)" fill="rgb(254,254,254)" d="M 1054.89 948.893 C 1058.28 950.429 1061.04 952.633 1062.45 956.037 C 1061.61 959.373 1060.28 960.051 1057.81 962.353 C 1054.59 960.462 1051.65 958.463 1050.61 954.729 C 1051.55 951.406 1052.34 951.08 1054.89 948.893 z"/>
<path transform="translate(0,0)" fill="rgb(254,254,254)" d="M 1059.68 1007.63 C 1062.63 1009.04 1064.9 1010.46 1066.26 1013.43 C 1065.75 1016.82 1063.3 1018.7 1061.01 1021.03 C 1058.43 1018.43 1055.85 1015.86 1053.46 1013.09 L 1053.91 1011.12 C 1055.88 1010.02 1057.77 1008.83 1059.68 1007.63 z"/>
<path transform="translate(0,0)" fill="rgb(254,254,254)" d="M 1000.58 1017.81 C 1003.18 1019.94 1005.76 1021.71 1007.22 1024.82 C 1006.47 1028.11 1005.13 1029 1002.84 1031.42 C 1002.24 1031.23 1001.62 1031.1 1001.05 1030.85 C 998.454 1029.73 996.734 1028.03 995.532 1025.59 C 996.36 1021.55 997.765 1020.72 1000.58 1017.81 z"/>
<path transform="translate(0,0)" fill="rgb(254,254,254)" d="M 1129.68 938.603 C 1132.72 939.547 1136.39 940.65 1137.95 943.608 C 1137.79 947.063 1136.49 948.218 1134.57 951.031 C 1134.15 950.897 1133.72 950.782 1133.31 950.628 C 1130.19 949.461 1127.08 947.932 1125.69 944.766 C 1126.17 941.361 1127.27 940.945 1129.68 938.603 z"/>
<path transform="translate(0,0)" fill="rgb(254,254,254)" d="M 1011.97 855.313 C 1016.37 858.118 1022.49 858.553 1024.96 863.477 L 1023.81 865.691 C 1021.99 865.957 1020.17 866.186 1018.33 866.257 C 1015.02 866.386 1013.36 865.709 1010.94 863.514 C 1010.15 859.98 1010.89 858.705 1011.97 855.313 z"/>
<path transform="translate(0,0)" fill="rgb(254,254,254)" d="M 1053.09 988.535 C 1054.54 988.645 1054.95 988.621 1056.49 989.029 C 1059.17 989.743 1061.35 991.344 1062.82 993.655 C 1063.36 997.501 1062.67 997.602 1060.52 1000.66 C 1060.03 1000.55 1059.54 1000.45 1059.06 1000.33 C 1055.54 999.438 1052.6 997.718 1050.79 994.534 C 1050.52 991.168 1050.96 991.236 1053.09 988.535 z"/>
<path transform="translate(0,0)" fill="rgb(254,254,254)" d="M 998.826 1037.24 C 1001.7 1037.92 1004.86 1038.92 1006.94 1041.18 C 1008.79 1043.19 1008.79 1044.13 1009.02 1046.7 L 1005.83 1049.44 C 1004.25 1050.8 1004.03 1050.33 1002.05 1050.21 C 1000.18 1048.72 998.48 1046.74 997.717 1044.42 C 996.707 1041.36 997.719 1040.06 998.826 1037.24 z"/>
<path transform="translate(0,0)" fill="rgb(254,254,254)" d="M 875.982 773.51 C 878.215 773.905 880.329 774.198 882.368 775.259 C 884.05 776.134 885.352 778.226 885.559 780.11 C 886.089 784.921 882.485 788.96 879.735 792.446 C 879.218 787.666 880.156 787.077 882.465 783.028 L 881.803 782.026 A 318.808 318.808 0 0 1 876.021 782.645 L 874.638 781.159 C 874.318 778.156 874.983 776.262 875.982 773.51 z"/>
<path transform="translate(0,0)" fill="rgb(254,254,254)" d="M 1020.84 1058.7 C 1024.54 1060.49 1027.88 1062.06 1029.31 1066.17 C 1028.71 1069.66 1027.91 1070.37 1025.73 1073.04 C 1024.23 1072.14 1024.68 1072.49 1023.29 1071.35 C 1020.65 1069.17 1017.53 1067.03 1017.37 1063.31 C 1017.3 1061.55 1019.65 1059.93 1020.84 1058.7 z"/>
<path transform="translate(0,0)" fill="rgb(254,254,254)" d="M 1111.89 884.013 C 1113.89 883.821 1116.06 883.536 1118.07 883.717 C 1120.31 883.918 1123.41 885.97 1124.58 887.877 C 1126.29 890.676 1126.58 892.27 1125.84 895.348 C 1122.11 895.154 1116.19 892.411 1113.58 889.649 C 1111.47 887.419 1111.71 886.9 1111.89 884.013 z"/>
<path transform="translate(0,0)" fill="rgb(254,254,254)" d="M 1138.24 882.483 C 1142.39 886.203 1148.67 886.323 1151.89 890.052 C 1152.08 893.086 1151.18 893.536 1149.41 895.92 C 1144.46 890.447 1141.34 894.361 1136.32 891.272 C 1135.44 888.051 1137.03 885.412 1138.24 882.483 z"/>
<path transform="translate(0,0)" fill="rgb(254,254,254)" d="M 1002.77 1055.9 C 1003.75 1056.24 1003.98 1056.28 1004.98 1056.92 C 1007.41 1058.46 1009.92 1060.63 1010.67 1063.47 C 1009.98 1067.1 1008.43 1067.34 1005.5 1069.44 L 1004.67 1069.55 C 1003.45 1067.89 1002.06 1066.53 1000.71 1064.99 C 998.868 1062.9 998.24 1061.39 998.397 1058.63 L 1002.77 1055.9 z"/>
<path transform="translate(0,0)" fill="rgb(254,254,254)" d="M 1002.52 874.537 C 1007.7 876.414 1012.54 876.778 1017.96 877.156 C 1015.79 879.43 1013.52 881.62 1011.29 883.841 C 1009.38 885.553 1007.58 887.354 1005.3 888.564 L 1005.75 884.011 C 1004.56 881.577 1004.05 881.846 1001.46 880.908 C 1000.92 878.254 1001.65 877.065 1002.52 874.537 z"/>
<path transform="translate(0,0)" fill="rgb(254,254,254)" d="M 1017.25 981.022 C 1020.19 983.535 1023.59 985.6 1024.96 989.248 C 1023.96 992.212 1021.25 993.448 1018.76 995.077 C 1018.49 994.996 1018.2 994.966 1017.95 994.835 C 1015.75 993.684 1013.95 991.268 1012.99 989.079 C 1013.27 984.765 1014.48 984.203 1017.25 981.022 z"/>
<path transform="translate(0,0)" fill="rgb(254,254,254)" d="M 998.952 978.791 C 1001.38 981.203 1003.78 983.277 1005.1 986.508 C 1004.51 989.786 1003.19 990.314 1000.78 992.516 L 990.681 987.883 C 993.276 984.714 996.149 981.775 998.952 978.791 z"/>
<path transform="translate(0,0)" fill="rgb(254,254,254)" d="M 1077.22 784.863 C 1077.35 784.908 1077.5 784.93 1077.63 784.999 C 1080.6 786.606 1082.45 787.542 1083.78 790.626 C 1082.74 794.143 1081.06 795.264 1078.49 797.815 C 1075.47 796.128 1072.78 794.704 1070.41 792.152 L 1070.56 790.262 C 1072.62 788.198 1074.87 786.567 1077.22 784.863 z"/>
<path transform="translate(0,0)" fill="rgb(254,254,254)" d="M 1037.26 964.992 C 1037.47 965.038 1037.69 965.038 1037.88 965.129 C 1041.21 966.739 1043.25 969.161 1044.22 972.602 C 1043.41 976.043 1042.36 976.108 1039.54 978.079 C 1036.68 976.48 1033.06 974.754 1031.73 971.647 C 1032.74 968.121 1034.5 967.319 1037.26 964.992 z"/>
<path transform="translate(0,0)" fill="rgb(254,254,254)" d="M 894.916 966.581 C 896.21 967.4 897.631 968.226 898.778 969.242 C 900.531 970.795 901.045 971.775 901.034 974.059 C 899.514 975.12 898.234 976.184 896.92 977.491 C 896.92 979.478 897.549 980.241 898.686 981.774 C 900.294 983.945 901.694 986.128 903.067 988.452 C 900.763 988.713 899.379 988.281 897.204 987.533 C 894.741 984.899 893.799 980.853 893.066 977.391 C 891.954 972.146 892.064 970.981 894.916 966.581 z"/>
<path transform="translate(0,0)" fill="rgb(254,254,254)" d="M 1076.46 988.51 C 1080.11 990.596 1084.54 992.18 1087.33 995.357 L 1087.19 996.948 L 1083.06 1000.16 C 1081.09 1001.29 1079.85 1001.15 1077.62 1001.02 C 1075.44 999.638 1074.45 999.124 1073.75 996.424 C 1072.79 992.738 1074.55 991.381 1076.46 988.51 z"/>
<path transform="translate(0,0)" fill="rgb(254,254,254)" d="M 1037.78 946.358 C 1038.86 946.932 1040.32 947.579 1041.3 948.352 C 1043.54 950.111 1043.63 950.493 1044 953.158 C 1042.72 955.217 1042.13 956.385 1039.43 956.707 C 1036.22 957.089 1034.98 954.763 1033.06 952.709 C 1030 951.191 1026.37 952.727 1022.98 952.008 C 1026.26 949.003 1033.49 947.829 1037.78 946.358 z"/>
<path transform="translate(0,0)" fill="rgb(254,254,254)" d="M 1092.44 972.458 C 1096.39 972.758 1098.38 974.756 1101.21 977.24 C 1103.67 979.391 1106.39 975.972 1109.9 977.056 C 1108.9 979.265 1107.47 979.86 1105.56 981.245 C 1101.53 980.812 1101.17 982.026 1098.07 984.448 C 1095.08 984.463 1094.99 984.686 1092.75 982.765 C 1091.23 977.825 1090.57 977.174 1092.44 972.458 z"/>
<path transform="translate(0,0)" fill="rgb(254,254,254)" d="M 1020.5 1039.69 C 1023.87 1042 1027.33 1044.14 1029.36 1047.78 C 1029.33 1050.81 1028.94 1050.64 1026.75 1052.8 C 1022.4 1052.1 1018.61 1051.58 1015.92 1047.9 C 1016.51 1044.12 1018.18 1042.68 1020.5 1039.69 z"/>
<path transform="translate(0,0)" fill="rgb(254,254,254)" d="M 978.286 1034.28 C 980.681 1034.67 982.362 1035.2 984.468 1036.46 C 987.1 1038.04 988.589 1039.35 989.16 1042.5 C 989.552 1044.66 987.834 1046.01 986.607 1047.7 C 985.549 1047.44 984.841 1047.29 983.854 1046.96 C 981.078 1046.02 977.093 1043.9 976.16 1040.93 C 975.166 1037.76 976.624 1036.71 978.286 1034.28 z"/>
<path transform="translate(0,0)" fill="rgb(254,254,254)" d="M 917.99 941.753 C 923.829 942.741 928.09 945.447 931.453 950.398 C 933.328 953.158 933.456 954.022 932.959 957.308 C 929.369 957.058 926.305 956.658 923.165 954.832 C 922.207 953.354 921.598 952.27 921.441 950.481 C 921.126 946.896 920.909 945.385 918.609 942.493 C 918.409 942.241 918.196 942 917.99 941.753 z"/>
<path transform="translate(0,0)" fill="rgb(254,254,254)" d="M 1018.35 1020.53 C 1019.23 1020.73 1019.51 1020.74 1020.41 1021.23 C 1023.55 1022.94 1027.87 1026.58 1028.57 1030.25 C 1028.88 1031.9 1027.33 1032.9 1026.34 1034.1 C 1024.64 1033.82 1022.9 1033.56 1021.24 1033.09 C 1017.95 1032.16 1016.35 1030.66 1014.71 1027.75 C 1015.13 1024.07 1016.09 1023.36 1018.35 1020.53 z"/>
<path transform="translate(0,0)" fill="rgb(254,254,254)" d="M 1014.9 958.723 C 1017.72 961.008 1021.95 966.872 1022.56 970.358 C 1021.11 972.989 1019.93 973.335 1017.38 974.812 C 1014.42 970.548 1011.38 969.478 1006.66 967.637 C 1009.34 964.608 1012.15 961.684 1014.9 958.723 z"/>
<path transform="translate(0,0)" fill="rgb(254,254,254)" d="M 881.044 1001.4 C 882.047 1001.88 882.718 1002.16 883.63 1002.73 C 887.975 1005.41 894.027 1010.88 895.408 1015.81 C 893.087 1017.52 891.295 1016.95 888.493 1016.93 C 888.483 1018.83 888.16 1020.53 887.777 1022.39 L 886.578 1022.4 C 882.126 1017.09 885.86 1017.43 884.979 1012.52 C 884.078 1011.7 882.672 1010.61 881.93 1009.6 C 880.014 1006.97 880.839 1004.45 881.044 1001.4 z"/>
<path transform="translate(0,0)" fill="rgb(254,254,254)" d="M 932.232 934.099 L 932.78 933.828 C 940.976 935.472 948.554 939.143 954.513 945.092 L 954.27 947.667 C 951.885 948.949 951.369 949.353 948.707 949.235 C 944.022 946.478 940.248 943.712 936.782 939.482 C 935.787 938.269 935.05 937.23 933.763 936.301 C 932.356 935.285 933.318 936.576 932.232 934.099 z"/>
<path transform="translate(0,0)" fill="rgb(254,254,254)" d="M 1114.31 917.855 C 1116.87 918.923 1118.17 919.525 1119.9 921.733 C 1121.22 923.423 1121.96 924.129 1124.03 924.94 C 1126.77 924.427 1130.07 923.559 1132.85 923.797 C 1135.1 923.989 1135.45 924.371 1136.84 925.955 C 1136.19 928.484 1131.78 930.545 1129.52 932.045 C 1126.51 930.724 1125.21 927.77 1122.69 926.503 C 1120.45 925.376 1116.56 929.864 1112.66 927.614 C 1110.16 926.17 1110.16 925.028 1109.55 922.438 C 1110.65 919.213 1111.4 919.389 1114.31 917.855 z"/>
<path transform="translate(0,0)" fill="rgb(254,254,254)" d="M 1747.3 1522.53 C 1751.63 1526.24 1753.19 1530.77 1755.03 1536 A 71.0099 71.0099 0 0 1 1748.56 1546.95 C 1731.95 1570.27 1685.2 1626.39 1661.55 1638.7 C 1658.77 1640.15 1655.66 1640.65 1652.59 1641.14 L 1644.8 1639.64 L 1644.31 1638.7 C 1650.9 1633.46 1658.39 1629.57 1664.97 1624.09 C 1695.57 1598.6 1731.57 1559.11 1747.3 1522.53 z"/>
<path transform="translate(0,0)" fill="rgb(254,254,254)" d="M 1725.19 1500.66 C 1728.76 1502.98 1731.61 1505.77 1734.66 1508.71 C 1723.28 1521.07 1714.3 1536.47 1703.43 1549.53 C 1684.89 1571.81 1664.88 1593.75 1643.21 1613.03 C 1636.84 1618.7 1629.79 1623.28 1623.37 1628.84 L 1621.51 1628.58 C 1617.69 1625.87 1614.07 1622.79 1610.4 1619.87 C 1650.77 1600.84 1702.49 1540.06 1725.19 1500.66 z"/>
<path transform="translate(0,0)" fill="rgb(254,254,254)" d="M 1676.67 1449.54 C 1680.13 1451.78 1683.04 1454.84 1686.02 1457.66 C 1677.85 1468.56 1668.33 1478.58 1659.25 1488.71 A 986.802 986.802 0 0 1 1565.71 1581 L 1564.83 1581.53 C 1561.69 1580.13 1559.99 1577.04 1558.03 1574.34 C 1601.53 1540.6 1642.09 1492.3 1676.67 1449.54 z"/>
<path transform="translate(0,0)" fill="rgb(254,254,254)" d="M 1702.08 1475.79 C 1705.39 1478.1 1708.22 1480.93 1711.15 1483.7 C 1684.68 1518.45 1656.14 1549.24 1624.53 1579.39 C 1615.35 1588.16 1605.48 1598.75 1594.44 1605.09 L 1592.49 1604.54 L 1581.68 1596.43 C 1620.19 1577.21 1678.54 1513.09 1702.08 1475.79 z"/>
<path transform="translate(0,0)" fill="rgb(254,254,254)" d="M 1191.65 940.882 C 1195.26 941.269 1197.77 944.997 1200.07 947.527 C 1184.22 958.466 1166.52 966.623 1150.63 977.782 C 1108.59 1007.29 1064.46 1058 1042.98 1104.79 C 1040.43 1104.58 1037.56 1101.77 1035.44 1100.21 C 1060.01 1048.35 1102.64 997.503 1150.05 964.788 C 1163.07 955.8 1177.87 948.703 1191.65 940.882 z"/>
<path transform="translate(0,0)" fill="rgb(254,254,254)" d="M 1747.86 1581.68 C 1759.32 1589.21 1770.03 1600.72 1780.24 1609.98 C 1803.15 1630.77 1826.13 1651.5 1847.87 1673.52 C 1837.25 1692.54 1819.98 1709.68 1798.58 1715.82 C 1784.97 1708.47 1772.2 1698.8 1759.58 1689.91 A 2802.39 2802.39 0 0 1 1697.17 1644.81 C 1695.14 1643.07 1694.04 1642.91 1693.74 1640.11 C 1697.76 1632.44 1705.36 1626.48 1711.61 1620.58 C 1726.3 1640.86 1749.82 1654.91 1769.55 1669.91 C 1778.74 1676.89 1787.64 1684.71 1797.32 1690.99 C 1802.96 1694.66 1810.24 1698.35 1817.16 1696.61 C 1822.16 1695.35 1826.07 1691.13 1828.41 1686.7 A 17.0957 17.0957 0 0 0 1829.61 1673.38 C 1827.62 1667.24 1822.48 1661.5 1818.09 1656.86 C 1805.92 1644 1752.66 1598.96 1738.63 1592.3 C 1741.51 1588.58 1744.69 1585.15 1747.86 1581.68 z"/>
<path transform="translate(0,0)" fill="rgb(254,254,254)" d="M 1384.72 1714.32 C 1388.32 1713.76 1391.84 1714.11 1395.27 1715.34 C 1402.12 1717.8 1408.38 1722.1 1411.17 1729.01 C 1413.75 1735.4 1412.53 1741.19 1409.67 1747.28 C 1397.74 1772.68 1359.25 1784.6 1334.79 1793.29 A 919.879 919.879 0 0 1 1310.45 1800.75 C 1312.06 1781.45 1320.23 1759.89 1331.9 1744.44 C 1345.14 1726.92 1363.22 1717.4 1384.72 1714.32 z"/>
<path transform="translate(0,0)" fill="rgb(254,254,254)" d="M 1196.08 967.129 C 1209.2 976.861 1221.9 994.108 1233.07 1006.48 L 1302.65 1083.07 L 1487.99 1285.42 C 1505.99 1304.92 1639.74 1444.61 1643.4 1454.47 C 1642.28 1456.58 1641.28 1457.17 1639.23 1458.33 C 1617.94 1438.38 1598.44 1416.73 1578.04 1395.9 A 7463.47 7463.47 0 0 1 1405.18 1213.04 L 1303.13 1101.62 C 1268.75 1064.03 1234.19 1026.42 1201.99 986.928 C 1198.26 982.356 1189.77 976.386 1189.21 970.532 C 1191.27 968.114 1193.09 968.037 1196.08 967.129 z"/>
<path transform="translate(0,0)" fill="rgb(254,254,254)" d="M 1240.44 1104.64 C 1242.95 1104.86 1244.45 1105.24 1246.39 1106.95 C 1260.52 1119.4 1273.3 1134.87 1286.37 1148.49 L 1350.42 1214.16 C 1337.77 1226.97 1324.55 1239.31 1311.62 1251.85 L 1309.47 1253.09 C 1303.3 1251.46 1212.28 1160.45 1203.36 1149.52 C 1211.92 1135.12 1225.99 1113.11 1240.44 1104.64 z"/>
<path transform="translate(0,0)" fill="rgb(0,0,0)" d="M 1240.31 1113.72 C 1244.52 1115.17 1312.43 1187.42 1322.67 1197.18 C 1313.85 1208.54 1303.39 1218.85 1293.55 1229.34 C 1292.45 1230.65 1293.19 1230.14 1291.11 1230.5 C 1264.26 1205.79 1237.11 1179.47 1212.48 1152.54 C 1218.77 1138.18 1230.27 1125.64 1240.31 1113.72 z"/>
<path transform="translate(0,0)" fill="rgb(254,254,254)" d="M 1155.79 798.019 C 1159.05 797.775 1161.38 797.697 1164.33 799.289 C 1168.23 801.387 1170.62 806.17 1171.69 810.267 C 1172.36 812.854 1172.5 815.782 1170.73 817.948 C 1167.11 822.36 1148.51 830.238 1142.75 833.4 A 363.691 363.691 0 0 0 1086.83 870.473 C 1030.26 915.491 979.09 969.709 942.406 1032.32 C 935.377 1044.32 930.46 1057.44 923.664 1069.59 C 917.052 1065.52 911.589 1060.24 906.163 1054.74 A 181.498 181.498 0 0 1 911.941 1039.3 C 921.213 1017.31 934.124 995.411 948.155 976.148 C 978.158 934.955 1017.27 897.774 1055.49 864.307 C 1067.58 853.717 1079.56 842.837 1092.61 833.42 C 1111.89 819.505 1133.8 807.042 1155.79 798.019 z"/>
<path transform="translate(0,0)" fill="rgb(254,254,254)" d="M 1094.03 734.359 C 1099.98 734.937 1103.47 736.241 1107.26 741.092 C 1108.78 743.044 1109.71 745.656 1108.97 748.127 C 1108.88 748.426 1107.72 750.93 1107.33 751.265 C 1104.72 753.489 1095.42 755.766 1091.79 757.182 C 1083.18 760.55 1075.29 765.096 1067.37 769.818 C 999.949 809.994 936.951 872.214 895.463 938.793 C 888.112 950.588 880.682 962.184 875.384 975.095 C 868.818 991.096 867.989 1007.73 863.704 1024.2 L 863.461 1025.11 C 855.808 1018.89 848.517 1011.08 847.003 1000.93 C 842.401 970.099 885.643 905.264 904.816 880.396 C 937.866 837.533 975.823 801.485 1019.76 770.075 C 1041.89 754.257 1066.42 737.928 1094.03 734.359 z"/>
<path transform="translate(0,0)" fill="rgb(254,254,254)" d="M 1087.83 1056.6 C 1098.16 1063.07 1119.22 1086.07 1128.84 1095.51 C 1177.35 1143.13 1223.55 1192.96 1272.57 1240.11 C 1299.31 1265.83 1327.25 1290.46 1354.52 1315.65 L 1465.21 1418.86 C 1501.47 1452.41 1543.4 1488.83 1575.25 1526.21 C 1571.6 1529.79 1565.86 1536.91 1560.57 1537.43 C 1558.95 1537.59 1557.53 1535.72 1556.35 1534.7 C 1536.45 1514.64 1514.96 1495.94 1494.07 1476.91 L 1402.61 1394.09 L 1185.7 1200.6 C 1159.73 1177.46 1133.11 1154.97 1107.01 1131.95 C 1091.91 1118.63 1076.63 1105.56 1062.81 1090.88 C 1070.2 1078.68 1078.93 1067.69 1087.83 1056.6 z"/>
<path transform="translate(0,0)" fill="rgb(251,206,77)" d="M 791.307 441.751 C 799.463 452.583 817.89 500.705 824.496 516.064 A 9036.29 9036.29 0 0 1 878.126 643.403 C 886.824 664.085 896.888 684.469 904.421 705.598 C 896.152 709.022 888.04 712.642 880.257 717.083 C 832.253 744.477 814.612 786.172 800.62 836.934 C 757.235 802.128 716.014 764.662 673.514 728.775 C 650.432 708.315 626.185 689.006 602.101 669.742 C 589.049 659.303 575.588 649.169 563.158 637.995 L 617.877 644.503 C 627.695 645.673 637.966 647.517 647.836 647.753 C 651.503 647.84 655.716 648.006 658.487 645.409 C 657.589 628.493 649.903 604.781 645.746 587.908 C 653.313 593.218 683.591 614.226 691.319 613.073 C 692.825 612.848 694.231 612.158 695.163 610.961 C 700.811 603.704 692.025 558.234 690.384 546.681 C 698.598 551.743 725.811 570.637 734.295 570.027 C 737.147 569.822 737.564 569.22 739.403 567.27 C 742.83 556.718 736.441 523.351 735.09 510.315 C 747.065 517.242 757.62 528.412 769.965 534.276 C 773.015 535.725 774.61 535.665 777.757 534.607 C 779.317 532.984 780.253 531.66 780.763 529.428 C 782.606 521.366 782.582 512.231 783.251 503.98 C 784.873 483.988 786.284 462.647 790.973 443.113 L 791.307 441.751 z"/>
</svg>